<svg width="19" height="20" viewBox="0 0 19 20" fill="none" xmlns="http://www.w3.org/2000/svg">
<path d="M17.6667 8.83317H10.6667V1.83317C10.6667 1.52375 10.5438 1.22701 10.325 1.00821C10.1062 0.78942 9.80942 0.666504 9.5 0.666504C9.19058 0.666504 8.89384 0.78942 8.67504 1.00821C8.45625 1.22701 8.33333 1.52375 8.33333 1.83317V8.83317H1.33333C1.02391 8.83317 0.727168 8.95609 0.508376 9.17488C0.289584 9.39367 0.166667 9.69042 0.166667 9.99984C0.166667 10.3093 0.289584 10.606 0.508376 10.8248C0.727168 11.0436 1.02391 11.1665 1.33333 11.1665H8.33333V18.1665C8.33333 18.4759 8.45625 18.7727 8.67504 18.9915C8.89384 19.2103 9.19058 19.3332 9.5 19.3332C9.80942 19.3332 10.1062 19.2103 10.325 18.9915C10.5438 18.7727 10.6667 18.4759 10.6667 18.1665V11.1665H17.6667C17.9761 11.1665 18.2728 11.0436 18.4916 10.8248C18.7104 10.606 18.8333 10.3093 18.8333 9.99984C18.8333 9.69042 18.7104 9.39367 18.4916 9.17488C18.2728 8.95609 17.9761 8.83317 17.6667 8.83317Z" fill="#737377"/>
</svg>
