<svg width="25" height="24" viewBox="0 0 25 24" fill="none" xmlns="http://www.w3.org/2000/svg">
<path d="M23.3733 9.14159L21.1683 8.40659L22.2067 6.32992C22.3119 6.11256 22.3471 5.86788 22.3074 5.62966C22.2677 5.39143 22.1551 5.1714 21.985 4.99992L19.5 2.51492C19.3276 2.34236 19.1055 2.22816 18.8648 2.1884C18.6241 2.14864 18.3771 2.18531 18.1583 2.29326L16.0817 3.33159L15.3467 1.12659C15.269 0.896747 15.1217 0.696819 14.9251 0.554629C14.7286 0.412438 14.4926 0.335058 14.25 0.333256H10.75C10.5054 0.332624 10.2668 0.408878 10.0679 0.551238C9.86905 0.693598 9.71993 0.894865 9.64167 1.12659L8.90667 3.33159L6.83 2.29326C6.61263 2.188 6.36796 2.15279 6.12973 2.1925C5.89151 2.2322 5.67148 2.34486 5.5 2.51492L3.015 4.99992C2.84243 5.17231 2.72824 5.39446 2.68848 5.63512C2.64872 5.87578 2.68539 6.12285 2.79333 6.34159L3.83167 8.41826L1.62667 9.15326C1.39682 9.23088 1.1969 9.37822 1.0547 9.57478C0.912514 9.77134 0.835134 10.0073 0.833332 10.2499V13.7499C0.832701 13.9945 0.908954 14.2331 1.05131 14.432C1.19367 14.6309 1.39494 14.78 1.62667 14.8583L3.83167 15.5933L2.79333 17.6699C2.68808 17.8873 2.65287 18.132 2.69257 18.3702C2.73228 18.6084 2.84493 18.8284 3.015 18.9999L5.5 21.4849C5.67239 21.6575 5.89454 21.7717 6.1352 21.8114C6.37586 21.8512 6.62293 21.8145 6.84167 21.7066L8.91833 20.6683L9.65333 22.8733C9.7316 23.105 9.88071 23.3062 10.0796 23.4486C10.2785 23.591 10.5171 23.6672 10.7617 23.6666H14.2617C14.5062 23.6672 14.7448 23.591 14.9437 23.4486C15.1426 23.3062 15.2917 23.105 15.37 22.8733L16.105 20.6683L18.1817 21.7066C18.3976 21.8092 18.6399 21.843 18.8757 21.8033C19.1115 21.7637 19.3295 21.6525 19.5 21.4849L21.985 18.9999C22.1576 18.8275 22.2718 18.6054 22.3115 18.3647C22.3513 18.1241 22.3146 17.877 22.2067 17.6583L21.1683 15.5816L23.3733 14.8466C23.6032 14.769 23.8031 14.6216 23.9453 14.4251C24.0875 14.2285 24.1649 13.9925 24.1667 13.7499V10.2499C24.1673 10.0053 24.091 9.76674 23.9487 9.56785C23.8063 9.36897 23.6051 9.21986 23.3733 9.14159ZM21.8333 12.9099L20.4333 13.3766C20.1114 13.481 19.816 13.6542 19.5677 13.8842C19.3194 14.1142 19.1241 14.3954 18.9954 14.7084C18.8666 15.0214 18.8075 15.3587 18.8221 15.6968C18.8367 16.035 18.9247 16.3659 19.08 16.6666L19.745 17.9966L18.4617 19.2799L17.1667 18.5799C16.8675 18.4309 16.5398 18.3478 16.2057 18.3364C15.8716 18.325 15.539 18.3856 15.2304 18.5139C14.9217 18.6422 14.6443 18.8353 14.4167 19.0802C14.1892 19.3251 14.017 19.616 13.9117 19.9333L13.445 21.3333H11.59L11.1233 19.9333C11.0189 19.6113 10.8457 19.316 10.6157 19.0677C10.3857 18.8193 10.1045 18.624 9.79149 18.4953C9.47849 18.3665 9.14123 18.3074 8.80309 18.322C8.46496 18.3366 8.13406 18.4246 7.83333 18.5799L6.50333 19.2449L5.22 17.9616L5.92 16.6666C6.07527 16.3659 6.16327 16.035 6.17789 15.6968C6.1925 15.3587 6.13338 15.0214 6.00463 14.7084C5.87587 14.3954 5.68057 14.1142 5.43227 13.8842C5.18396 13.6542 4.8886 13.481 4.56667 13.3766L3.16667 12.9099V11.0899L4.56667 10.6233C4.8886 10.5188 5.18396 10.3456 5.43227 10.1156C5.68057 9.88566 5.87587 9.60441 6.00463 9.29141C6.13338 8.97841 6.1925 8.64115 6.17789 8.30302C6.16327 7.96489 6.07527 7.63398 5.92 7.33326L5.255 6.03826L6.53833 4.75492L7.83333 5.41992C8.13406 5.5752 8.46496 5.6632 8.80309 5.67781C9.14123 5.69242 9.47849 5.6333 9.79149 5.50455C10.1045 5.3758 10.3857 5.1805 10.6157 4.93219C10.8457 4.68389 11.0189 4.38852 11.1233 4.06659L11.59 2.66659H13.41L13.8767 4.06659C13.9811 4.38852 14.1543 4.68389 14.3843 4.93219C14.6143 5.1805 14.8955 5.3758 15.2085 5.50455C15.5215 5.6333 15.8588 5.69242 16.1969 5.67781C16.535 5.6632 16.8659 5.5752 17.1667 5.41992L18.4967 4.75492L19.78 6.03826L19.08 7.33326C18.9309 7.63244 18.8479 7.96016 18.8365 8.29423C18.8251 8.62829 18.8856 8.96091 19.014 9.26955C19.1423 9.5782 19.3354 9.85567 19.5803 10.0832C19.8252 10.3107 20.1161 10.4829 20.4333 10.5883L21.8333 11.0549V12.9099ZM12.5 7.33326C11.577 7.33326 10.6748 7.60695 9.90734 8.11973C9.13991 8.63251 8.54177 9.36134 8.18856 10.2141C7.83535 11.0668 7.74294 12.0051 7.923 12.9103C8.10306 13.8156 8.54752 14.6471 9.20017 15.2998C9.85281 15.9524 10.6843 16.3969 11.5896 16.5769C12.4948 16.757 13.4331 16.6646 14.2859 16.3114C15.1386 15.9582 15.8674 15.36 16.3802 14.5926C16.893 13.8252 17.1667 12.9229 17.1667 11.9999C17.1667 10.7622 16.675 9.57526 15.7998 8.70009C14.9247 7.82492 13.7377 7.33326 12.5 7.33326ZM12.5 14.3333C12.0385 14.3333 11.5874 14.1964 11.2037 13.94C10.82 13.6836 10.5209 13.3192 10.3443 12.8928C10.1677 12.4665 10.1215 11.9973 10.2115 11.5447C10.3015 11.0921 10.5238 10.6763 10.8501 10.35C11.1764 10.0237 11.5922 9.80145 12.0448 9.71142C12.4974 9.62139 12.9666 9.6676 13.3929 9.8442C13.8193 10.0208 14.1837 10.3199 14.4401 10.7036C14.6965 11.0873 14.8333 11.5384 14.8333 11.9999C14.8333 12.6188 14.5875 13.2123 14.1499 13.6498C13.7123 14.0874 13.1188 14.3333 12.5 14.3333Z" fill="#737377"/>
</svg>
