<svg width="21" height="24" viewBox="0 0 21 24" fill="none" xmlns="http://www.w3.org/2000/svg">
<path d="M19.8333 7.3331L12.8333 1.19643C12.1916 0.622482 11.3609 0.305176 10.5 0.305176C9.63908 0.305176 8.80836 0.622482 8.16667 1.19643L1.16667 7.3331C0.7961 7.66452 0.500387 8.07108 0.299221 8.52571C0.0980548 8.98035 -0.00394813 9.47263 3.78161e-06 9.96976V20.1664C3.78161e-06 21.0947 0.368753 21.9849 1.02513 22.6413C1.68151 23.2977 2.57175 23.6664 3.5 23.6664H17.5C18.4283 23.6664 19.3185 23.2977 19.9749 22.6413C20.6313 21.9849 21 21.0947 21 20.1664V9.9581C21.0023 9.46292 20.8995 8.97289 20.6984 8.52039C20.4973 8.06789 20.2024 7.66321 19.8333 7.3331ZM12.8333 21.3331H8.16667V15.4998C8.16667 15.1903 8.28959 14.8936 8.50838 14.6748C8.72717 14.456 9.02392 14.3331 9.33334 14.3331H11.6667C11.9761 14.3331 12.2728 14.456 12.4916 14.6748C12.7104 14.8936 12.8333 15.1903 12.8333 15.4998V21.3331ZM18.6667 20.1664C18.6667 20.4758 18.5438 20.7726 18.325 20.9914C18.1062 21.2102 17.8094 21.3331 17.5 21.3331H15.1667V15.4998C15.1667 14.5715 14.7979 13.6813 14.1415 13.0249C13.4852 12.3685 12.5949 11.9998 11.6667 11.9998H9.33334C8.40508 11.9998 7.51484 12.3685 6.85846 13.0249C6.20209 13.6813 5.83334 14.5715 5.83334 15.4998V21.3331H3.5C3.19058 21.3331 2.89384 21.2102 2.67505 20.9914C2.45625 20.7726 2.33334 20.4758 2.33334 20.1664V9.9581C2.33355 9.79245 2.36903 9.62874 2.43742 9.47787C2.50582 9.327 2.60556 9.19242 2.73 9.0831L9.73 2.9581C9.94291 2.77106 10.2166 2.66791 10.5 2.66791C10.7834 2.66791 11.0571 2.77106 11.27 2.9581L18.27 9.0831C18.3944 9.19242 18.4942 9.327 18.5626 9.47787C18.631 9.62874 18.6665 9.79245 18.6667 9.9581V20.1664Z" fill="#737377"/>
</svg>
