<svg width="25" height="24" viewBox="0 0 25 24" fill="none" xmlns="http://www.w3.org/2000/svg">
<path d="M23.35 9.20016L21.1333 8.50016L22.1833 6.40016C22.4167 5.9335 22.3 5.35016 21.95 5.00016L19.5 2.55016C19.15 2.20016 18.5667 2.0835 18.1 2.31683L16 3.36683L15.3 1.15016C15.1833 0.683496 14.7167 0.333496 14.25 0.333496H10.75C10.2833 0.333496 9.81667 0.683496 9.7 1.15016L8.88334 3.36683L6.78334 2.31683C6.43334 2.0835 5.85 2.20016 5.5 2.55016L3.05 5.00016C2.7 5.35016 2.58334 5.9335 2.81667 6.2835L3.86667 8.3835L1.65 9.20016C1.18334 9.31683 0.833336 9.7835 0.833336 10.2502V13.7502C0.833336 14.2168 1.18334 14.6835 1.65 14.8002L3.86667 15.5002L2.81667 17.6002C2.58334 18.0668 2.7 18.6502 3.05 19.0002L5.5 21.4502C5.85 21.8002 6.43334 21.9168 6.9 21.6835L9 20.6335L9.7 22.8502C9.81667 23.3168 10.2833 23.6668 10.75 23.6668H14.25C14.7167 23.6668 15.1833 23.3168 15.3 22.8502L16 20.6335L18.1 21.6835C18.5667 21.9168 19.0333 21.8002 19.5 21.4502L21.95 19.0002C22.3 18.6502 22.4167 18.0668 22.1833 17.6002L21.1333 15.5002L23.35 14.8002C23.8167 14.6835 24.1667 14.2168 24.1667 13.7502V10.2502C24.1667 9.7835 23.8167 9.31683 23.35 9.20016ZM12.5 15.5002C10.5167 15.5002 9 13.9835 9 12.0002C9 10.0168 10.5167 8.50016 12.5 8.50016C14.4833 8.50016 16 10.0168 16 12.0002C16 13.9835 14.4833 15.5002 12.5 15.5002Z" fill="black"/>
</svg>
