<svg width="98" height="123" viewBox="0 0 98 123" fill="none" xmlns="http://www.w3.org/2000/svg">
<g clip-path="url(#clip0_45_99)">
<path d="M68.8785 42.6226H55.8006C55.3431 42.6226 54.9382 42.9193 54.7967 43.3546C53.1772 48.4017 50.8483 53.9171 42.6141 78.9679C42.0792 80.5969 24.8769 81.3439 27.3193 83.6687C29.7618 85.9936 55.0715 86.9483 58.6693 82.3018C62.2671 77.6554 68.8768 42.6226 68.8768 42.6226" fill="white"/>
<path d="M42.0019 85.8058C35.1107 85.8058 28.4105 84.9913 27.1794 83.8206C26.8519 83.509 26.8503 83.2303 26.9062 83.0489C27.2305 81.9986 30.5386 81.3869 35.5502 80.5724C38.3695 80.114 42.2307 79.4874 42.4216 78.9071C47.8825 62.2901 50.7923 54.1432 52.5303 49.2758C53.4191 46.7893 54.0593 44.9921 54.6041 43.2955C54.772 42.7711 55.2542 42.4199 55.8039 42.4199H68.8818C68.9427 42.4199 69.0003 42.448 69.0398 42.4941C69.0793 42.5419 69.0941 42.6029 69.0842 42.664C69.0678 42.7513 67.4071 51.533 65.3284 60.7682C62.5321 73.1922 60.3481 80.48 58.8372 82.4306C57.2523 84.4768 51.9609 85.2831 47.8002 85.5997C45.9338 85.7415 43.9621 85.8074 42.0052 85.8074L42.0019 85.8058ZM55.8006 42.8288C55.4303 42.8288 55.1061 43.0663 54.9925 43.4191C54.4461 45.1224 53.8042 46.9212 52.9138 49.4126C51.1758 54.2784 48.2693 62.4236 42.8083 79.034C42.5532 79.8123 39.9067 80.2805 35.6127 80.978C32.0297 81.56 27.5695 82.2855 27.2963 83.1693C27.2848 83.2072 27.2502 83.3193 27.4609 83.5205C29.0689 85.0506 40.2622 85.7563 47.764 85.1875C53.5261 84.7505 57.3411 83.6804 58.5064 82.1767C61.8754 77.8254 68.0309 45.9583 68.6283 42.8288H55.799H55.8006Z" fill="black"/>
<path d="M56.0821 118.288C56.0821 119.429 50.8746 120.355 44.4509 120.355C38.0272 120.355 32.8214 119.43 32.8214 118.288C32.8214 117.145 38.0288 116.22 44.4509 116.22C50.873 116.22 56.0821 117.145 56.0821 118.288Z" fill="white"/>
<path d="M44.4509 120.56C41.3337 120.56 38.4008 120.344 36.1921 119.951C33.8188 119.529 32.6156 118.97 32.6156 118.288C32.6156 117.605 33.8188 117.044 36.1921 116.622C38.4008 116.23 41.3337 116.014 44.4509 116.014C47.5681 116.014 50.5027 116.23 52.7114 116.622C55.0847 117.044 56.2878 117.605 56.2878 118.288C56.2878 118.97 55.0847 119.531 52.7114 119.951C50.5027 120.344 47.5698 120.56 44.4509 120.56ZM44.4509 116.424C37.3738 116.424 33.0271 117.509 33.0271 118.286C33.0271 119.063 37.3738 120.148 44.4509 120.148C51.528 120.148 55.8763 119.064 55.8763 118.286C55.8763 117.508 51.5297 116.424 44.4509 116.424Z" fill="black"/>
<path d="M44.4525 117.367C43.9143 117.367 43.4782 116.93 43.4782 116.391V86.4253H45.4269V116.391C45.4269 116.93 44.9907 117.367 44.4525 117.367Z" fill="white"/>
<path d="M44.4525 117.574C43.8024 117.574 43.2725 117.043 43.2725 116.391V86.4253C43.2725 86.3116 43.3646 86.2192 43.4782 86.2192H45.4269C45.5404 86.2192 45.6326 86.3116 45.6326 86.4253V116.391C45.6326 117.043 45.1026 117.574 44.4525 117.574ZM43.6839 86.6314V116.391C43.6839 116.815 44.0279 117.161 44.4525 117.161C44.8772 117.161 45.2212 116.817 45.2212 116.391V86.6314H43.6839Z" fill="black"/>
<path d="M68.1148 44.1807C64.963 54.2452 58.3369 79.6917 57.2671 81.6802C56.1973 83.6703 27.321 83.6703 27.321 83.6703C27.321 83.6703 31.2578 88.2624 45.18 87.9557C59.1005 87.649 62.1569 84.7421 62.9205 84.1287C63.6842 83.5153 69.3311 43.813 69.3377 43.2606C69.3492 42.3422 68.7271 42.2268 68.1148 44.179V44.1807Z" fill="white"/>
<path d="M43.8469 88.1765C31.0653 88.1765 27.3226 83.9884 27.1646 83.8038C27.112 83.7428 27.1004 83.657 27.1333 83.5828C27.1663 83.5103 27.2403 83.4625 27.321 83.4625C27.3934 83.4625 34.6219 83.4592 41.8867 83.2135C55.0518 82.7683 56.9017 81.9224 57.086 81.5811C57.6588 80.516 59.9185 72.3707 62.3099 63.7457C64.3623 56.3473 66.4838 48.6967 67.919 44.1163C68.1757 43.2968 68.5921 42.3322 69.1155 42.4196C69.2471 42.441 69.5516 42.5647 69.5434 43.2622C69.5401 43.5655 68.1214 53.6465 66.6171 63.7011C63.6003 83.8466 63.2151 84.155 63.0506 84.2885L62.9633 84.3594C60.1292 86.6843 54.1482 87.9638 45.1849 88.16C44.729 88.1699 44.283 88.1748 43.8485 88.1748L43.8469 88.1765ZM27.8444 83.8747C29.0985 84.92 33.7793 88.0001 45.1751 87.7494C54.0429 87.5549 59.9399 86.3067 62.7016 84.0412L62.7757 83.9802C63.6167 82.5671 69.1171 43.5886 69.1319 43.2556C69.1352 42.9522 69.0628 42.8384 69.0431 42.8252C69.0464 42.8302 68.7221 42.9324 68.3123 44.2416C66.8804 48.8154 64.7589 56.4627 62.7082 63.8578C60.2049 72.8802 58.0439 80.6726 57.4498 81.7774C57.1387 82.3561 55.1884 83.1772 41.9015 83.6273C35.7559 83.8351 29.6367 83.8697 27.846 83.8747H27.8444ZM62.7905 83.967C62.7905 83.967 62.7905 83.967 62.7889 83.967H62.7905Z" fill="black"/>
<path d="M92.6197 113.389H59.6321V120.354H92.6197V113.389Z" fill="#F7F552"/>
<path d="M92.6197 113.595H59.6321C59.5186 113.595 59.4264 113.503 59.4264 113.389C59.4264 113.275 59.5186 113.183 59.6321 113.183H92.6197C92.7333 113.183 92.8255 113.275 92.8255 113.389C92.8255 113.503 92.7333 113.595 92.6197 113.595Z" fill="black"/>
<path d="M95.5148 87.9556H56.7371V90.3563H95.5148V87.9556Z" fill="white"/>
<path d="M95.5148 90.5624H56.7371C56.6235 90.5624 56.5314 90.4701 56.5314 90.3563V87.9556C56.5314 87.8418 56.6235 87.7495 56.7371 87.7495H95.5148C95.6283 87.7495 95.7205 87.8418 95.7205 87.9556V90.3563C95.7205 90.4701 95.6283 90.5624 95.5148 90.5624ZM56.9428 90.1502H95.309V88.1617H56.9428V90.1502Z" fill="black"/>
<path d="M84.1025 87.9703H66.1019C66.1019 87.5433 66.4476 87.197 66.8738 87.197H84.1042V87.9703H84.1025Z" fill="white"/>
<path d="M84.1025 88.1765H66.1019C65.9884 88.1765 65.8962 88.0841 65.8962 87.9704C65.8962 87.4312 66.334 86.991 66.8738 86.991H84.1042C84.2177 86.991 84.3099 87.0833 84.3099 87.1971V87.9704C84.3099 88.0841 84.2177 88.1765 84.1042 88.1765H84.1025ZM66.3455 87.7643H83.8968V87.4032H66.8722C66.6335 87.4032 66.4278 87.5532 66.3455 87.7643Z" fill="black"/>
<path d="M92.6757 87.9704H84.1025C83.6696 87.9704 83.3569 87.5565 83.4721 87.1393L87.2477 73.5315C87.4123 72.9379 87.9521 72.5273 88.566 72.5273H97.1392C97.5721 72.5273 97.8848 72.9412 97.7696 73.3584L93.994 86.9662C93.8294 87.5598 93.2896 87.9704 92.6757 87.9704Z" fill="white"/>
<path d="M92.6757 88.1766H84.1025C83.8309 88.1766 83.5824 88.0529 83.4178 87.8369C83.2533 87.6209 83.2006 87.3472 83.2746 87.085L87.0502 73.4772C87.2395 72.7979 87.8633 72.323 88.5677 72.323H97.1409C97.4124 72.323 97.661 72.4467 97.8255 72.6627C97.9901 72.8787 98.0428 73.1524 97.9687 73.4145L94.1932 87.0224C94.0039 87.7017 93.3801 88.1766 92.6757 88.1766ZM88.566 72.7336C88.0459 72.7336 87.5851 73.0848 87.4452 73.586L83.6696 87.1939C83.6318 87.3307 83.6598 87.4725 83.7454 87.5863C83.8309 87.7001 83.961 87.7644 84.1025 87.7644H92.6757C93.1958 87.7644 93.6566 87.4132 93.7965 86.9119L97.5721 73.3041C97.6099 73.1672 97.582 73.0254 97.4964 72.9116C97.4108 72.7979 97.2808 72.7336 97.1392 72.7336H88.566Z" fill="black"/>
<path d="M92.419 80.6761C92.1326 81.6522 91.5318 82.442 91.0759 82.442C90.62 82.442 90.4834 81.6505 90.7698 80.6761C91.0562 79.7 91.6569 78.9102 92.1128 78.9102C92.5687 78.9102 92.7053 79.7016 92.419 80.6761Z" fill="white"/>
<path d="M91.0776 82.6481C90.8949 82.6481 90.7369 82.5657 90.6217 82.4123C90.3682 82.0727 90.3501 81.3851 90.574 80.6184C90.8455 79.6901 91.4775 78.7041 92.1128 78.7041C92.2955 78.7041 92.4535 78.7865 92.5687 78.9399C92.8222 79.2795 92.8403 79.9671 92.6164 80.7338C92.3449 81.6621 91.7129 82.6481 91.0759 82.6481H91.0776ZM92.1128 79.1147C91.7968 79.1147 91.2389 79.8072 90.9673 80.7338C90.7566 81.4527 90.811 81.9787 90.9492 82.165C90.9969 82.2277 91.0397 82.2359 91.0759 82.2359C91.3919 82.2359 91.9499 81.5434 92.2214 80.6168C92.4321 79.8995 92.3778 79.3719 92.2395 79.1856C92.1918 79.1229 92.149 79.1147 92.1128 79.1147Z" fill="black"/>
<path d="M92.6197 120.56H59.6321C59.5186 120.56 59.4264 120.468 59.4264 120.354L59.3589 90.3564C59.3589 90.302 59.3803 90.2493 59.4198 90.2097C59.4593 90.1701 59.5103 90.1487 59.5647 90.1487H92.5523C92.6658 90.1487 92.758 90.241 92.758 90.3548L92.8255 120.352C92.8255 120.407 92.8041 120.459 92.7646 120.499C92.7251 120.538 92.6741 120.56 92.6197 120.56ZM59.8379 120.148H92.414L92.3482 90.5625H59.772L59.8379 120.148Z" fill="white"/>
<path d="M67.5042 79.6091C67.5519 79.0221 67.0894 78.5176 66.5002 78.5176H61.1397C60.5505 78.5176 60.088 79.0221 60.1358 79.6091L60.4452 83.38H67.1948L67.5042 79.6091Z" fill="white"/>
<path d="M60.4452 83.3801L60.7464 87.0438C60.7892 87.5665 61.2253 87.9705 61.7503 87.9705H65.8913C66.4146 87.9705 66.8524 87.5682 66.8952 87.0438L67.1964 83.3801H60.4468H60.4452Z" fill="#F7F552"/>
<path d="M65.8896 88.1766H61.7487C61.1216 88.1766 60.5917 87.6869 60.5406 87.062L59.93 79.6274C59.9021 79.2893 60.0173 78.9546 60.246 78.7057C60.4748 78.4567 60.8007 78.3132 61.1381 78.3132H66.4986C66.836 78.3132 67.1619 78.4567 67.3906 78.7057C67.6194 78.9546 67.7346 79.291 67.7066 79.6274L67.096 87.062C67.045 87.6869 66.5134 88.1766 65.888 88.1766H65.8896ZM61.1397 78.7238C60.9126 78.7238 60.7036 78.8161 60.5505 78.9827C60.3974 79.1492 60.3234 79.3668 60.3415 79.5927L60.9521 87.0273C60.9867 87.4412 61.3372 87.7644 61.7503 87.7644H65.8913C66.3044 87.7644 66.6566 87.4412 66.6895 87.0273L67.3001 79.5927C67.3182 79.3668 67.2442 79.1508 67.0911 78.9827C66.938 78.8161 66.7274 78.7238 66.5019 78.7238H61.1414H61.1397Z" fill="black"/>
<path d="M36.2875 25.1068H20.099C19.9855 25.1068 19.8933 25.0144 19.8933 24.9007V1.91753C19.8933 1.80376 19.9855 1.71143 20.099 1.71143H36.2875C36.4011 1.71143 36.4932 1.80376 36.4932 1.91753V24.9007C36.4932 25.0144 36.4011 25.1068 36.2875 25.1068ZM20.3047 24.6946H36.0818V2.12364H20.3047V24.6946Z" fill="white"/>
<path d="M25.1254 13.8254H23.0089V16.9714H25.1254V13.8254Z" fill="white"/>
<path d="M29.2515 18.3811H27.135V21.7925H29.2515V18.3811Z" fill="white"/>
<path d="M33.3777 10.0679H31.2611V13.3622H33.3777V10.0679Z" fill="#F7F552"/>
<path d="M25.1254 21.9987H23.0089C22.8953 21.9987 22.8031 21.9063 22.8031 21.7926V10.0677C22.8031 9.95391 22.8953 9.86157 23.0089 9.86157H25.1254C25.239 9.86157 25.3312 9.95391 25.3312 10.0677V21.7926C25.3312 21.9063 25.239 21.9987 25.1254 21.9987ZM23.2146 21.5865H24.9197V10.2738H23.2146V21.5865Z" fill="white"/>
<path d="M29.2515 21.9987H27.135C27.0214 21.9987 26.9293 21.9063 26.9293 21.7926V10.0677C26.9293 9.95391 27.0214 9.86157 27.135 9.86157H29.2515C29.3651 9.86157 29.4573 9.95391 29.4573 10.0677V21.7926C29.4573 21.9063 29.3651 21.9987 29.2515 21.9987ZM27.3407 21.5865H29.0458V10.2738H27.3407V21.5865Z" fill="white"/>
<path d="M33.3777 21.9987H31.2611C31.1476 21.9987 31.0554 21.9063 31.0554 21.7926V10.0677C31.0554 9.95391 31.1476 9.86157 31.2611 9.86157H33.3777C33.4912 9.86157 33.5834 9.95391 33.5834 10.0677V21.7926C33.5834 21.9063 33.4912 21.9987 33.3777 21.9987ZM31.4668 21.5865H33.1719V10.2738H31.4668V21.5865Z" fill="#F7F552"/>
<path d="M33.3777 8.2656H23.0089L26.3302 5.74618L28.7282 6.72229L33.3777 5.02563V8.2656Z" fill="#F7F552"/>
<path d="M33.378 8.4717H23.0091C22.9203 8.4717 22.8429 8.41564 22.8149 8.33155C22.787 8.24746 22.8149 8.15512 22.8857 8.10236L26.207 5.58293C26.2646 5.53842 26.342 5.52852 26.4095 5.55655L28.735 6.50298L33.3105 4.83436C33.373 4.81128 33.4438 4.82117 33.4981 4.85909C33.5524 4.89702 33.5853 4.96132 33.5853 5.02728V8.26559C33.5853 8.37936 33.4932 8.4717 33.3796 8.4717H33.378ZM23.6214 8.05949H33.1722V5.32077L28.7992 6.91519C28.7515 6.93333 28.6988 6.93168 28.6511 6.9119L26.3617 5.97865L23.6214 8.05619V8.05949Z" fill="#F7F552"/>
<path d="M11.1193 9.84516C13.7762 9.84516 15.9301 7.68737 15.9301 5.02561C15.9301 2.36384 13.7762 0.206055 11.1193 0.206055C8.46238 0.206055 6.30851 2.36384 6.30851 5.02561C6.30851 7.68737 8.46238 9.84516 11.1193 9.84516Z" fill="white"/>
<path d="M11.1193 8.73887C13.1663 8.73887 14.8257 7.07642 14.8257 5.02568C14.8257 2.97495 13.1663 1.3125 11.1193 1.3125C9.0723 1.3125 7.41287 2.97495 7.41287 5.02568C7.41287 7.07642 9.0723 8.73887 11.1193 8.73887Z" fill="#F7F552"/>
<path d="M11.1193 10.053C8.35265 10.053 6.10278 7.799 6.10278 5.02731C6.10278 2.25561 8.35265 0 11.1193 0C13.886 0 16.1358 2.25396 16.1358 5.02566C16.1358 7.79735 13.886 10.0513 11.1193 10.0513V10.053ZM11.1193 0.412209C8.57977 0.412209 6.51424 2.4815 6.51424 5.02566C6.51424 7.56981 8.57977 9.63911 11.1193 9.63911C13.6588 9.63911 15.7244 7.56981 15.7244 5.02566C15.7244 2.4815 13.6588 0.412209 11.1193 0.412209Z" fill="white"/>
<path d="M10.8905 7.3554V7.10312C10.8905 7.00584 10.8165 6.92505 10.7194 6.91516C10.4922 6.89042 10.2717 6.82777 10.1005 6.74368C10.0133 6.70081 9.9738 6.60023 10.0051 6.50789L10.0232 6.45678C10.061 6.35125 10.1812 6.30179 10.2832 6.3496C10.4824 6.44359 10.7243 6.50954 10.9811 6.50954C11.4156 6.50954 11.7102 6.25727 11.7102 5.90772C11.7102 5.55816 11.4715 5.36195 11.0173 5.17728C10.3918 4.9316 10.0067 4.64965 10.0067 4.11543C10.0067 3.65046 10.3079 3.28771 10.7901 3.15745C10.8741 3.13437 10.9317 3.06017 10.9317 2.97443V2.69743C10.9317 2.5919 11.0173 2.50781 11.121 2.50781C11.2263 2.50781 11.3102 2.59355 11.3102 2.69743V2.92662C11.3102 3.0239 11.3843 3.10469 11.4814 3.11623C11.669 3.13767 11.8204 3.18219 11.9455 3.2366C12.0377 3.27617 12.0821 3.38335 12.0459 3.47898L12.0278 3.52679C11.99 3.62737 11.8764 3.67849 11.7776 3.63562C11.6361 3.57461 11.4386 3.51525 11.1802 3.51525C10.7078 3.51525 10.5301 3.7972 10.5301 4.04288C10.5301 4.36276 10.7572 4.52104 11.2905 4.74199C11.9208 4.99921 12.2401 5.31908 12.2401 5.86485C12.2401 6.31168 11.9537 6.73378 11.4139 6.87723C11.33 6.90032 11.2724 6.97451 11.2724 7.06025V7.3554C11.2724 7.46092 11.1868 7.54501 11.0831 7.54501H11.0765C10.9712 7.54501 10.8872 7.45927 10.8872 7.3554H10.8905Z" fill="black"/>
<path d="M14.7336 31.0262H0.20573C0.0921671 31.0262 0 30.9338 0 30.8201V13.5782C0 13.4644 0.0921671 13.3721 0.20573 13.3721H14.7336C14.8471 13.3721 14.9393 13.4644 14.9393 13.5782V30.8184C14.9393 30.9322 14.8471 31.0245 14.7336 31.0245V31.0262ZM0.41146 30.614H14.5278V13.7843H0.41146V30.6123V30.614Z" fill="white"/>
<path d="M4.8075 19.0027H2.83249V20.9813H4.8075V19.0027Z" fill="white"/>
<path d="M4.8075 21.1874H2.83249C2.71893 21.1874 2.62676 21.0951 2.62676 20.9813V19.0027C2.62676 18.889 2.71893 18.7966 2.83249 18.7966H4.8075C4.92107 18.7966 5.01323 18.889 5.01323 19.0027V20.9813C5.01323 21.0951 4.92107 21.1874 4.8075 21.1874ZM3.03822 20.7752H4.60177V19.2088H3.03822V20.7752Z" fill="white"/>
<path d="M8.45634 21.1874H6.48133C6.36776 21.1874 6.2756 21.0951 6.2756 20.9813V19.0027C6.2756 18.889 6.36776 18.7966 6.48133 18.7966H8.45634C8.5699 18.7966 8.66207 18.889 8.66207 19.0027V20.9813C8.66207 21.0951 8.5699 21.1874 8.45634 21.1874ZM6.68706 20.7752H8.25061V19.2088H6.68706V20.7752Z" fill="white"/>
<path d="M12.1068 21.1874H10.1318C10.0182 21.1874 9.92607 21.0951 9.92607 20.9813V19.0027C9.92607 18.889 10.0182 18.7966 10.1318 18.7966H12.1068C12.2204 18.7966 12.3125 18.889 12.3125 19.0027V20.9813C12.3125 21.0951 12.2204 21.1874 12.1068 21.1874ZM10.3375 20.7752H11.9011V19.2088H10.3375V20.7752Z" fill="white"/>
<path d="M4.8075 24.7375H2.83249C2.71893 24.7375 2.62676 24.6452 2.62676 24.5314V22.5528C2.62676 22.439 2.71893 22.3467 2.83249 22.3467H4.8075C4.92107 22.3467 5.01323 22.439 5.01323 22.5528V24.5314C5.01323 24.6452 4.92107 24.7375 4.8075 24.7375ZM3.03822 24.3253H4.60177V22.7589H3.03822V24.3253Z" fill="white"/>
<path d="M8.45634 22.5527H6.48133V24.5313H8.45634V22.5527Z" fill="#F7F552"/>
<path d="M8.45634 24.7375H6.48133C6.36776 24.7375 6.2756 24.6452 6.2756 24.5314V22.5528C6.2756 22.439 6.36776 22.3467 6.48133 22.3467H8.45634C8.5699 22.3467 8.66207 22.439 8.66207 22.5528V24.5314C8.66207 24.6452 8.5699 24.7375 8.45634 24.7375ZM6.68706 24.3253H8.25061V22.7589H6.68706V24.3253Z" fill="#F7F552"/>
<path d="M12.1068 24.7375H10.1318C10.0182 24.7375 9.92607 24.6452 9.92607 24.5314V22.5528C9.92607 22.439 10.0182 22.3467 10.1318 22.3467H12.1068C12.2204 22.3467 12.3125 22.439 12.3125 22.5528V24.5314C12.3125 24.6452 12.2204 24.7375 12.1068 24.7375ZM10.3375 24.3253H11.9011V22.7589H10.3375V24.3253Z" fill="white"/>
<path d="M4.8075 28.289H2.83249C2.71893 28.289 2.62676 28.1967 2.62676 28.0829V26.1043C2.62676 25.9905 2.71893 25.8982 2.83249 25.8982H4.8075C4.92107 25.8982 5.01323 25.9905 5.01323 26.1043V28.0829C5.01323 28.1967 4.92107 28.289 4.8075 28.289ZM3.03822 27.8768H4.60177V26.3104H3.03822V27.8768Z" fill="white"/>
<path d="M8.45634 26.1042H6.48133V28.0829H8.45634V26.1042Z" fill="white"/>
<path d="M8.45634 28.289H6.48133C6.36776 28.289 6.2756 28.1967 6.2756 28.0829V26.1043C6.2756 25.9905 6.36776 25.8982 6.48133 25.8982H8.45634C8.5699 25.8982 8.66207 25.9905 8.66207 26.1043V28.0829C8.66207 28.1967 8.5699 28.289 8.45634 28.289ZM6.68706 27.8768H8.25061V26.3104H6.68706V27.8768Z" fill="white"/>
<path d="M12.1068 26.1042H10.1318V28.0829H12.1068V26.1042Z" fill="white"/>
<path d="M12.1068 28.289H10.1318C10.0182 28.289 9.92607 28.1967 9.92607 28.0829V26.1043C9.92607 25.9905 10.0182 25.8982 10.1318 25.8982H12.1068C12.2204 25.8982 12.3125 25.9905 12.3125 26.1043V28.0829C12.3125 28.1967 12.2204 28.289 12.1068 28.289ZM10.3375 27.8768H11.9011V26.3104H10.3375V27.8768Z" fill="white"/>
<path d="M14.7336 16.5228H0.20573C0.0921671 16.5228 0 16.4305 0 16.3167C0 16.2029 0.0921671 16.1106 0.20573 16.1106H14.7336C14.8471 16.1106 14.9393 16.2029 14.9393 16.3167C14.9393 16.4305 14.8471 16.5228 14.7336 16.5228Z" fill="white"/>
<path d="M3.82 14.4206C3.70643 14.4206 3.61427 14.3283 3.61427 14.2145V12.7652C3.61427 12.6514 3.70643 12.5591 3.82 12.5591C3.93356 12.5591 4.02573 12.6514 4.02573 12.7652V14.2145C4.02573 14.3283 3.93356 14.4206 3.82 14.4206Z" fill="white"/>
<path d="M7.46883 14.4206C7.35527 14.4206 7.2631 14.3283 7.2631 14.2145V12.7652C7.2631 12.6514 7.35527 12.5591 7.46883 12.5591C7.58239 12.5591 7.67456 12.6514 7.67456 12.7652V14.2145C7.67456 14.3283 7.58239 14.4206 7.46883 14.4206Z" fill="white"/>
<path d="M11.1193 14.4206C11.0057 14.4206 10.9136 14.3283 10.9136 14.2145V12.7652C10.9136 12.6514 11.0057 12.5591 11.1193 12.5591C11.2329 12.5591 11.325 12.6514 11.325 12.7652V14.2145C11.325 14.3283 11.2329 14.4206 11.1193 14.4206Z" fill="white"/>
<path d="M79.7164 62.1629C80.2545 61.4588 81.2618 61.3236 81.9662 61.8644C82.669 62.4036 82.8039 63.4127 82.2641 64.1184C81.7259 64.8224 80.7187 64.9576 80.0142 64.4168C79.3115 63.8776 79.1765 62.8686 79.7164 62.1629Z" fill="#F7F552"/>
<path d="M75.0981 60.1562C74.5155 60.1562 73.9279 59.9715 73.4309 59.589C72.8482 59.1421 72.4746 58.4942 72.3775 57.7654C72.2804 57.0366 72.473 56.3127 72.9207 55.729C73.3667 55.1454 74.0135 54.7711 74.741 54.6738C75.4684 54.5765 76.1909 54.7694 76.7736 55.2179C77.9767 56.1413 78.2055 57.8725 77.2838 59.0778C76.7439 59.7852 75.926 60.1562 75.0981 60.1562ZM75.1063 55.0629C75.0026 55.0629 74.899 55.0695 74.7953 55.0827C74.1764 55.1651 73.6267 55.4834 73.2465 55.9797C72.8663 56.476 72.7034 57.091 72.7857 57.711C72.868 58.3309 73.1856 58.8816 73.681 59.2625C74.7031 60.0474 76.1728 59.8528 76.9579 58.8272C77.7413 57.8016 77.5471 56.3292 76.5234 55.5444C76.1119 55.2278 75.6182 55.0613 75.1063 55.0613V55.0629Z" fill="black"/>
<path d="M57.69 21.5174C57.5255 21.5174 57.3691 21.4448 57.2638 21.3178L56.6268 20.5577C56.5116 20.4192 56.3421 20.3401 56.1611 20.3401C55.2394 20.3401 54.4889 19.5882 54.4889 18.6649V13.5221C54.4889 12.5988 55.2394 11.8469 56.1611 11.8469H64.7408C65.6625 11.8469 66.413 12.5988 66.413 13.5221V18.6649C66.413 19.5882 65.6625 20.3401 64.7408 20.3401H59.1828C58.9952 20.3401 58.8224 20.4242 58.7055 20.5709L58.1295 21.303C58.0258 21.4349 57.8694 21.5124 57.6999 21.5157C57.6966 21.5157 57.6933 21.5157 57.6917 21.5157L57.69 21.5174ZM56.1611 12.2591C55.4649 12.2591 54.9003 12.8263 54.9003 13.5221V18.6649C54.9003 19.3623 55.4665 19.9279 56.1611 19.9279C56.4622 19.9279 56.747 20.0614 56.9412 20.2923L57.5781 21.0524C57.6176 21.0986 57.6686 21.1035 57.6917 21.1051C57.718 21.1051 57.7674 21.0969 57.8036 21.0491L58.3797 20.317C58.5739 20.0697 58.8652 19.9279 59.1795 19.9279H64.7375C65.4337 19.9279 65.9983 19.3607 65.9983 18.6649V13.5221C65.9983 12.8247 65.4321 12.2591 64.7375 12.2591H56.1578H56.1611Z" fill="black"/>
<path d="M60.0189 17.415C59.9646 17.415 59.9119 17.3936 59.8741 17.354L58.4817 15.9591C58.401 15.8783 58.401 15.748 58.4817 15.6672C58.5623 15.5865 58.6924 15.5865 58.773 15.6672L60.0189 16.9154L62.2145 14.7159C62.2951 14.6351 62.4251 14.6351 62.5058 14.7159C62.5864 14.7967 62.5864 14.9269 62.5058 15.0077L60.1637 17.354C60.1259 17.3919 60.0732 17.415 60.0189 17.415Z" fill="black"/>
<path d="M11.0584 98.8365C11.0584 98.8365 4.28742 106.786 3.43981 108.377C2.59385 109.966 12.5199 114.418 16.0733 115.373C19.6267 116.327 23.2245 105.153 23.5421 101.465C23.8598 97.7763 13.6045 95.8043 11.0568 98.8365H11.0584Z" fill="white"/>
<path d="M16.5094 115.636C16.3449 115.636 16.1836 115.615 16.0223 115.572C12.9594 114.749 4.12448 110.917 3.26206 108.929C3.15837 108.69 3.15672 108.471 3.25876 108.279C4.10637 106.688 10.619 99.0359 10.9021 98.7029C11.697 97.7581 13.2523 97.2057 15.2849 97.148C17.1069 97.1002 19.1428 97.4613 20.7376 98.1241C22.7916 98.9766 23.8614 100.17 23.7495 101.483C23.4895 104.5 20.945 113.002 17.9018 115.14C17.4311 115.47 16.9653 115.636 16.5094 115.636ZM15.6289 97.5569C15.517 97.5569 15.4067 97.5569 15.2965 97.5619C13.384 97.6163 11.934 98.1159 11.2164 98.97C11.1489 99.0491 4.45035 106.921 3.62414 108.472C3.60933 108.5 3.56489 108.584 3.64225 108.764C3.97471 109.529 5.90528 110.817 8.94021 112.294C11.4962 113.537 14.4521 114.721 16.1309 115.173C16.6148 115.303 17.1316 115.178 17.6665 114.802C20.5631 112.767 23.0928 104.324 23.3413 101.447C23.4368 100.343 22.4312 99.2717 20.5829 98.505C19.1362 97.9048 17.3077 97.5569 15.6306 97.5569H15.6289Z" fill="#272727"/>
<path d="M18.7412 114.274C18.7412 114.274 18.728 114.274 18.7198 114.274C11.9554 113.597 4.13765 107.494 4.06029 107.432C3.97142 107.361 3.95496 107.232 4.02573 107.143C4.0965 107.054 4.22487 107.038 4.31375 107.109C4.3911 107.17 12.1167 113.199 18.7609 113.864C18.8745 113.875 18.9568 113.976 18.9453 114.09C18.9354 114.195 18.8449 114.276 18.7412 114.276V114.274Z" fill="#272727"/>
<path d="M35.0762 63.2215C35.0762 63.2215 14.7616 62.3724 10.5531 66.168C6.47803 69.8416 7.63012 78.5508 10.4478 89.5238C13.2655 100.498 18.728 101.465 18.728 101.465C18.728 101.465 34.8886 79.1625 37.7457 74.0956C40.6029 69.0287 35.0762 63.2215 35.0762 63.2215Z" fill="#272727"/>
<path d="M16.7277 71.2626C17.5379 69.2648 16.7364 67.0518 14.9377 66.3197C13.1389 65.5876 11.0239 66.6136 10.2138 68.6114C9.4036 70.6092 10.2051 72.8223 12.0038 73.5544C13.8026 74.2865 15.9176 73.2604 16.7277 71.2626Z" fill="white"/>
<path d="M11.6081 103.288C11.6081 103.288 11.1588 106.207 8.75588 108.121C6.50766 109.912 2.24657 110.345 2.35026 116.654C2.35026 116.654 4.3944 118.162 11.3761 120.354C17.1908 122.177 22.1695 122.794 22.1695 122.794C22.1695 122.794 24.0523 119.854 24.421 114.309C24.7979 108.66 25.8134 107.461 25.9648 106.091C26.1179 104.721 13.9386 100.315 11.6081 103.288Z" fill="white"/>
<path d="M22.1695 123C22.1613 123 22.153 123 22.1448 123C22.0954 122.993 17.0822 122.36 11.3152 120.553C4.37958 118.377 2.3124 116.885 2.22847 116.822C2.17745 116.784 2.14617 116.723 2.14453 116.659C2.06224 111.671 4.7285 110.215 6.87139 109.046C7.51656 108.693 8.12716 108.36 8.6275 107.961C10.9366 106.123 11.3991 103.287 11.404 103.259C11.409 103.224 11.4238 103.191 11.4452 103.163C13.1569 100.981 19.5131 102.513 23.1175 103.992C24.5527 104.581 26.2462 105.427 26.1689 106.116C26.1195 106.56 25.9862 106.98 25.8167 107.511C25.4447 108.678 24.8835 110.444 24.6251 114.324C24.2564 119.857 22.4197 122.784 22.3407 122.906C22.3028 122.965 22.237 123.002 22.1678 123.002L22.1695 123ZM2.55434 116.543C3.00037 116.835 5.32759 118.24 11.4386 120.156C16.6477 121.79 21.233 122.458 22.0625 122.57C22.3966 121.988 23.8943 119.125 24.2169 114.293C24.4786 110.362 25.0497 108.569 25.4266 107.382C25.5895 106.873 25.7179 106.469 25.7624 106.067C25.7821 105.895 25.1221 105.255 22.9628 104.37C20.9022 103.524 18.4844 102.866 16.4979 102.607C14.1049 102.297 12.4837 102.563 11.8023 103.374C11.725 103.806 11.167 106.462 8.88425 108.279C8.35594 108.701 7.73052 109.041 7.06889 109.404C4.93423 110.569 2.51484 111.89 2.55599 116.542L2.55434 116.543Z" fill="#272727"/>
<path d="M9.35167 107.588C9.35167 107.588 6.7282 110.937 7.67785 111.026C10.3194 111.274 14.1575 110.779 20.5829 115.691C21.284 116.227 21.4832 113.091 22.1695 112.537C22.6896 112.118 23.7018 112.147 24.681 111.64" fill="white"/>
<path d="M20.736 115.958C20.6553 115.958 20.5599 115.933 20.4562 115.854C14.9344 111.633 11.3794 111.443 8.78386 111.305C8.38721 111.283 8.01196 111.264 7.6581 111.231C7.49023 111.216 7.3635 111.128 7.3026 110.987C7.20879 110.769 7.2055 109.991 9.18874 107.46C9.25951 107.371 9.38788 107.354 9.47676 107.425C9.56563 107.496 9.58209 107.625 9.51132 107.714C8.41848 109.109 7.56758 110.55 7.67621 110.817C7.6795 110.817 7.68444 110.817 7.69431 110.818C8.03994 110.851 8.4119 110.871 8.80361 110.891C11.4534 111.031 15.0825 111.224 20.7047 115.522C20.7261 115.539 20.7376 115.542 20.7376 115.542C20.8956 115.486 21.1227 114.672 21.2577 114.185C21.4766 113.4 21.6823 112.658 22.0378 112.372C22.339 112.129 22.7521 112.029 23.2294 111.91C23.6491 111.806 24.1264 111.689 24.5839 111.452C24.6843 111.399 24.8094 111.438 24.8604 111.541C24.9131 111.641 24.8736 111.766 24.7716 111.818C24.2712 112.076 23.7692 112.2 23.3265 112.309C22.8953 112.414 22.5233 112.507 22.2929 112.691C22.0411 112.894 21.8255 113.671 21.651 114.294C21.391 115.232 21.2116 115.813 20.8578 115.931C20.8215 115.943 20.7788 115.953 20.731 115.953L20.736 115.958Z" fill="#272727"/>
<path d="M2.48193 114.682C2.48193 114.682 8.30656 118.805 22.9085 121.275Z" fill="white"/>
<path d="M22.9085 121.482C22.8969 121.482 22.8854 121.482 22.8739 121.478C8.39379 119.03 2.42103 114.891 2.36343 114.85C2.27126 114.784 2.24822 114.655 2.31405 114.563C2.37988 114.471 2.50826 114.448 2.60043 114.514C2.65803 114.555 8.56825 118.642 22.943 121.073C23.0549 121.092 23.1307 121.198 23.1109 121.31C23.0944 121.411 23.0072 121.482 22.9085 121.482Z" fill="#272727"/>
<path d="M4.35161 115.958C4.34008 115.958 4.33021 115.958 4.31869 115.955C4.20677 115.937 4.13106 115.831 4.14917 115.719C4.75484 111.978 7.48693 110.88 7.60379 110.835C7.70912 110.794 7.82927 110.847 7.87042 110.954C7.91156 111.059 7.85889 111.18 7.75356 111.221C7.72229 111.234 5.12186 112.291 4.55734 115.787C4.54088 115.887 4.45365 115.96 4.3549 115.96L4.35161 115.958Z" fill="#272727"/>
<path d="M18.9239 120.56C18.9107 120.56 18.8976 120.56 18.8844 120.557C18.7725 120.535 18.7001 120.426 18.7214 120.316C19.3584 117.002 20.3739 115.623 20.4167 115.567C20.4858 115.476 20.6142 115.458 20.7047 115.526C20.7952 115.595 20.8133 115.724 20.7458 115.814C20.736 115.828 19.7419 117.186 19.1263 120.393C19.1066 120.492 19.021 120.56 18.9239 120.56Z" fill="#272727"/>
<path d="M23.3973 120.123C23.3183 120.123 23.2426 120.077 23.2097 120.001C21.8387 116.916 24.1626 115.584 24.1856 115.57C24.286 115.516 24.4095 115.551 24.4654 115.651C24.5197 115.75 24.4852 115.875 24.3848 115.931C24.3025 115.978 22.3703 117.102 23.5849 119.833C23.631 119.936 23.5849 120.058 23.4812 120.105C23.4532 120.116 23.4253 120.123 23.3973 120.123Z" fill="#272727"/>
<path d="M54.7242 78.5903C49.9101 83.1823 34.5149 86.6647 33.483 87.5831C32.4527 88.5015 26.1557 109.668 26.1557 109.668C26.1557 109.668 15.5762 111.415 9.35167 104.525C9.35167 104.525 12.9873 81.7824 16.6131 77.9934C19.4901 74.9876 31.7647 70.0856 31.7647 70.0856C31.8981 69.6932 31.7647 70.0856 32.7868 68.2389C33.2098 67.4738 33.7628 66.6016 34.2565 65.853C35.221 67.0385 37.3935 68.6165 42.2817 69.7822C50.315 71.6965 56.4935 69.3832 57.6127 68.9182C57.639 72.4006 57.063 76.3594 54.7242 78.5903Z" fill="#272727"/>
<path d="M9.35167 104.731C9.34015 104.731 9.33028 104.731 9.31876 104.728C9.20684 104.71 9.12948 104.604 9.14759 104.492C9.29571 103.56 12.8359 81.6423 16.4634 77.85C19.2415 74.9464 30.4036 70.4104 31.6002 69.929C31.6462 69.7987 31.6676 69.7608 31.7664 69.5992C31.8734 69.4228 32.0972 69.0584 32.6058 68.1383C32.6601 68.0394 32.7852 68.0031 32.8856 68.0575C32.9843 68.1119 33.0205 68.2372 32.9662 68.3378C32.4527 69.2645 32.2256 69.6355 32.117 69.8135C32.0511 69.9213 31.9985 70.0334 31.959 70.1499C31.9392 70.2076 31.8964 70.2521 31.8405 70.2752C31.7187 70.3247 19.574 75.1953 16.7613 78.1336C13.221 81.8336 9.59032 104.329 9.55411 104.555C9.53765 104.657 9.45042 104.728 9.35167 104.728V104.731Z" fill="white"/>
<path d="M34.4425 70.2917C34.4261 70.2917 34.4096 70.29 34.3932 70.2851C33.0534 69.9586 31.8306 70.2801 31.8174 70.2851C31.7071 70.3148 31.5952 70.2488 31.5656 70.14C31.536 70.0295 31.6002 69.9174 31.7104 69.8877C31.7647 69.8729 33.0452 69.5349 34.4903 69.8877C34.6005 69.9141 34.668 70.0262 34.6417 70.1367C34.6186 70.2307 34.5347 70.295 34.4425 70.295V70.2917Z" fill="white"/>
<path d="M54.298 79.1756C54.2239 79.1756 54.1515 79.1344 54.1153 79.0635C54.0577 78.9513 52.7147 76.272 54.1054 72.4566C54.1284 72.3939 54.1795 72.3477 54.242 72.3296L56.3223 71.7344C56.431 71.7031 56.5462 71.7657 56.5758 71.8762C56.6071 71.985 56.5429 72.1004 56.4343 72.1301L54.456 72.6957C53.8009 74.5522 53.8355 76.1186 53.9836 77.1129C54.1465 78.211 54.4774 78.8672 54.4806 78.8738C54.5317 78.9744 54.4922 79.0997 54.3918 79.1509C54.3621 79.1657 54.3292 79.1739 54.298 79.1739V79.1756Z" fill="white"/>
<path d="M22.4603 84.2121C24.6845 83.3294 25.8624 81.0326 25.0911 79.0819C24.3198 77.1313 21.8914 76.2656 19.6672 77.1483C17.4429 78.031 16.2651 80.3279 17.0364 82.2785C17.8076 84.2291 20.236 85.0948 22.4603 84.2121Z" fill="white"/>
<path d="M45.282 38.7361C43.9325 37.6198 40.6506 37.2785 37.7309 39.6891C34.5577 42.3107 27.8361 49.3002 27.3193 49.1089C26.9029 48.9539 26.6528 46.7296 26.3713 44.047C23.287 45.5771 19.6497 46.1888 16.4123 45.704C16.4502 50.4593 17.1612 57.3465 20.6882 60.2847C27.395 65.871 34.5923 59.0481 40.6144 53.9021C47.1748 48.296 50.0533 42.6801 45.2804 38.7361H45.282Z" fill="#F7F552"/>
<path d="M27.079 48.7546C27.079 48.7546 27.9793 50.9789 28.1933 53.2757Z" fill="white"/>
<path d="M28.1933 53.4817C28.0879 53.4817 27.9991 53.401 27.9892 53.2954C27.7802 51.058 26.898 48.8551 26.8881 48.832C26.8453 48.7265 26.8963 48.6061 27.0017 48.5633C27.107 48.5204 27.2272 48.5715 27.27 48.677C27.3078 48.7694 28.1834 50.9574 28.399 53.2559C28.4089 53.3696 28.3266 53.4702 28.213 53.4801C28.2064 53.4801 28.1999 53.4801 28.1933 53.4801V53.4817Z" fill="black"/>
<path d="M26.3713 44.0469C26.1425 41.8704 25.8924 39.3939 25.5138 37.473C25.1814 35.7862 24.1824 34.2412 23.2426 32.8645C21.7268 30.6418 20.1698 28.2659 19.2646 28.3862C17.6451 28.6006 20.8331 33.3789 20.8331 33.3789C20.8331 33.3789 19.7501 32.5611 18.9255 33.8884C18.9255 33.8884 17.2204 33.1992 16.9472 35.1349C16.9472 35.1349 15.5038 34.6848 15.2718 36.3666C15.0627 37.8885 15.596 40.1853 16.6098 40.764C16.6098 40.764 16.3893 42.8498 16.4107 45.704" fill="white"/>
<path d="M16.414 45.9085C16.3004 45.9085 16.2099 45.8179 16.2082 45.7041C16.1885 43.2655 16.3498 41.3643 16.3959 40.868C15.387 40.1541 14.8554 37.9001 15.071 36.337C15.1533 35.7451 15.3837 35.323 15.7606 35.0839C16.1276 34.8514 16.5358 34.8564 16.7843 34.8894C16.8995 34.3469 17.1464 33.9644 17.5167 33.75C18.0072 33.4664 18.5717 33.567 18.8432 33.6428C19.1214 33.2488 19.4522 33.0146 19.8324 32.9437C20.0036 32.9124 20.1665 32.9174 20.313 32.9437C19.6267 31.8407 18.2754 29.4779 18.6836 28.576C18.7544 28.421 18.9074 28.2264 19.2415 28.1819C20.155 28.0632 21.3301 29.6823 23.1586 32.3683L23.417 32.7492C24.3996 34.1886 25.3855 35.7369 25.7196 37.4335C26.08 39.2654 26.3269 41.615 26.5441 43.6892L26.5787 44.0256C26.5902 44.1393 26.5079 44.2399 26.396 44.2515C26.2857 44.2647 26.182 44.1822 26.1705 44.0684L26.136 43.7321C25.9187 41.6661 25.6735 39.3264 25.3163 37.5127C24.997 35.8919 24.0359 34.3848 23.078 32.98L22.8179 32.5991C21.5737 30.7706 20.0184 28.4968 19.2958 28.5892C19.1395 28.6106 19.0868 28.6831 19.0588 28.7441C18.7461 29.4367 20.0875 31.8835 21.0075 33.262C21.0635 33.3461 21.0503 33.4565 20.9779 33.5258C20.9055 33.595 20.7919 33.6016 20.7129 33.5406C20.7096 33.539 20.336 33.2669 19.9048 33.3477C19.6036 33.4054 19.3353 33.6231 19.1049 33.994C19.0523 34.0798 18.9453 34.1144 18.8531 34.0765C18.8465 34.0748 18.2079 33.8242 17.7224 34.1062C17.4212 34.2826 17.2303 34.6354 17.1563 35.1598C17.148 35.2191 17.1135 35.2735 17.0624 35.3049C17.0114 35.3362 16.9489 35.3461 16.8913 35.328C16.8863 35.328 16.3794 35.1763 15.9811 35.4318C15.7145 35.6033 15.545 35.9265 15.4808 36.3915C15.2405 38.131 15.9597 40.1492 16.7168 40.5828C16.7876 40.624 16.8287 40.7015 16.8189 40.784C16.8172 40.8054 16.6 42.8928 16.6214 45.7008C16.6214 45.8146 16.5308 45.9069 16.4173 45.9085H16.414Z" fill="black"/>
<path d="M16.9489 35.1333C16.9489 35.1333 16.8781 38.4705 17.7685 39.6363C18.6589 40.802 19.783 39.7632 19.7254 39.1218" fill="white"/>
<path d="M18.6704 40.3718C18.2837 40.3718 17.91 40.1624 17.6056 39.7633C16.6806 38.5531 16.7399 35.2686 16.7431 35.1301C16.7448 35.018 16.837 34.929 16.9489 34.929H16.9538C17.0674 34.9306 17.1579 35.0262 17.1546 35.14C17.1546 35.173 17.0954 38.4195 17.9331 39.5144C18.2359 39.9101 18.5832 40.0469 18.9371 39.9101C19.2975 39.7699 19.5444 39.3891 19.5213 39.1434C19.5115 39.0296 19.5954 38.9307 19.7073 38.9191C19.8209 38.9109 19.9196 38.9933 19.9311 39.1055C19.9723 39.5622 19.5921 40.0948 19.0852 40.2926C18.9469 40.347 18.8087 40.3734 18.6704 40.3734V40.3718Z" fill="black"/>
<path d="M18.9255 33.8869C18.9255 33.8869 18.5881 34.6338 19.0012 36.7509C19.3255 38.4113 19.5032 39.2044 20.1912 39.4698C21.0404 39.798 21.9292 38.6108 21.5375 37.5687C20.7738 35.5374 21.4289 34.1161 20.8331 33.3757" fill="white"/>
<path d="M20.4841 39.7321C20.3607 39.7321 20.2373 39.709 20.1188 39.6628C19.3024 39.3479 19.1132 38.385 18.8021 36.7906C18.3791 34.6339 18.7247 33.8342 18.7395 33.8012C18.7856 33.6973 18.9091 33.6512 19.0111 33.699C19.1132 33.7452 19.1592 33.8672 19.1148 33.9694C19.1082 33.9859 18.8169 34.7279 19.2053 36.7114C19.5213 38.3289 19.6859 39.0544 20.2669 39.277C20.5204 39.3759 20.8018 39.2968 21.0371 39.061C21.3334 38.7675 21.5556 38.197 21.3466 37.6414C20.9302 36.5317 20.9219 35.6083 20.917 34.868C20.9121 34.2481 20.9088 33.7979 20.6734 33.5061C20.6026 33.417 20.6158 33.2884 20.7047 33.2159C20.7936 33.145 20.9219 33.1582 20.9944 33.2472C21.3202 33.6512 21.3235 34.187 21.3285 34.8647C21.3334 35.5737 21.34 36.4558 21.7317 37.4963C22.0065 38.2283 21.7268 38.9571 21.3268 39.3545C21.0799 39.6002 20.7804 39.7304 20.4841 39.7304V39.7321Z" fill="black"/>
<path d="M17.9627 39.8508C17.9627 39.8508 17.9282 41.2688 16.6115 40.7626Z" fill="white"/>
<path d="M17.1283 41.0791C16.9489 41.0791 16.7514 41.0379 16.5374 40.9554C16.4321 40.9142 16.3778 40.7955 16.4189 40.6883C16.4601 40.5812 16.5786 40.5284 16.6855 40.5696C17.0065 40.6933 17.2567 40.6966 17.4311 40.5812C17.7389 40.3767 17.7586 39.8507 17.7586 39.8458C17.7619 39.732 17.8524 39.6446 17.9693 39.6463C18.0829 39.6496 18.1717 39.7435 18.1701 39.8573C18.1701 39.887 18.1471 40.5993 17.6615 40.9241C17.5085 41.0263 17.3291 41.0791 17.1299 41.0791H17.1283Z" fill="black"/>
<path d="M24.5099 36.8118C24.5099 36.8118 24.3387 36.8926 23.2689 36.1127C21.6445 34.9289 19.5855 34.3155 19.4933 35.4977C19.444 36.1424 20.1188 36.675 20.708 37.1762C21.6198 37.9512 21.763 38.3535 21.8239 38.5827" fill="white"/>
<path d="M21.8239 38.7905C21.7333 38.7905 21.6494 38.7295 21.6247 38.6371C21.5836 38.4789 21.4848 38.1079 20.5747 37.3346L20.4792 37.2538C19.8949 36.7591 19.2333 36.1985 19.2876 35.4829C19.314 35.1416 19.4785 34.8926 19.7649 34.7607C20.6026 34.3733 22.232 35.1037 23.3891 35.9479C24.1774 36.5217 24.4391 36.5992 24.4868 36.6091C24.5708 36.6008 24.658 36.6454 24.6959 36.7278C24.7436 36.8317 24.6991 36.9537 24.5955 37.0015C24.5099 37.0411 24.314 37.1318 23.1471 36.2826C21.9094 35.3807 20.499 34.8778 19.9377 35.1367C19.7896 35.2059 19.7139 35.3263 19.6991 35.5175C19.6596 36.0221 20.2126 36.4887 20.7458 36.9405L20.8429 37.0229C21.73 37.7781 21.9374 38.2101 22.0247 38.5333C22.0543 38.6437 21.9884 38.7559 21.8782 38.7855C21.8601 38.7905 21.842 38.7921 21.8255 38.7921L21.8239 38.7905Z" fill="black"/>
<path d="M19.0259 40.113C18.7099 40.4824 18.4005 41.0479 18.5388 41.7734Z" fill="white"/>
<path d="M18.5388 41.9794C18.4417 41.9794 18.3561 41.9102 18.3363 41.8112C18.1816 40.9918 18.5404 40.3619 18.8696 39.9777C18.9436 39.892 19.0737 39.8805 19.1592 39.9547C19.2448 40.0289 19.2547 40.1591 19.1823 40.2448C18.7889 40.7049 18.6408 41.2045 18.7412 41.7337C18.7626 41.8459 18.6885 41.953 18.5766 41.9745C18.5634 41.9761 18.5503 41.9778 18.5388 41.9778V41.9794Z" fill="black"/>
<path d="M61.3553 49.2311C60.6674 52.7893 56.8852 62.0871 56.8852 62.0871C56.8852 62.0871 57.5864 65.2364 57.6127 68.9183C56.4935 69.3832 50.315 71.6966 42.2817 69.7823C37.3935 68.6165 35.221 67.0386 34.2566 65.8531C34.2483 65.8432 34.2401 65.8333 34.2335 65.8234C33.6854 65.1408 33.6114 64.196 34.0228 63.4227C34.6828 62.1877 35.0663 60.1415 35.2753 58.3393C35.3477 57.7177 35.3988 57.1241 35.435 56.6031C35.644 53.5033 35.486 50.9542 35.5732 47.6977C35.6127 46.2369 35.8662 44.8832 36.2776 43.6861C37.0528 41.4305 38.3827 39.7272 39.8656 38.9012C41.9278 37.7519 44.6599 36.5005 52.7608 37.9795C62.9057 39.8295 62.0417 45.6697 61.3553 49.2295V49.2311Z" fill="#F7F552"/>
<path d="M73.3124 65.6254C71.1399 63.7358 69.2801 62.1579 68.9278 61.6632C68.1889 60.6261 67.8926 60.6459 65.6724 52.1972C63.4538 43.7486 60.33 41.4732 60.33 41.4732C58.5475 40.0931 56.9297 39.7403 55.5718 40.1113C53.8931 40.568 52.611 42.1294 51.9049 44.2169C51.3503 45.8558 51.1528 47.8179 51.3963 49.8262C51.8391 53.4784 55.1192 62.303 57.7822 66.8983C59.4313 69.7442 63.2135 71.9206 65.9653 74.0064C67.3577 70.1465 70.0256 67.4589 73.3124 65.6254Z" fill="#F7F552"/>
<path d="M57.7822 67.1044C57.7114 67.1044 57.6423 67.0681 57.6045 67.0022C54.9431 62.4102 51.6465 53.5938 51.1923 49.851C50.952 47.8724 51.1363 45.8492 51.7107 44.1509C51.7469 44.0438 51.8638 43.986 51.9707 44.0223C52.0777 44.0586 52.1353 44.1757 52.0991 44.2828C51.5445 45.9234 51.3667 47.8839 51.5988 49.8015C52.0481 53.5031 55.3167 62.2387 57.9583 66.7944C58.0159 66.8933 57.9814 67.0187 57.8843 67.0764C57.8513 67.0945 57.8168 67.1044 57.7806 67.1044H57.7822Z" fill="black"/>
<path d="M78.7387 81.6175C78.6762 81.4377 78.6186 81.324 78.6186 81.324C78.6531 81.4229 78.6943 81.5202 78.7387 81.6175Z" fill="white"/>
<path d="M78.7387 81.8235C78.6613 81.8235 78.5873 81.779 78.5527 81.7048C78.5033 81.5993 78.4606 81.4938 78.4243 81.3932C78.3881 81.2909 78.4375 81.1772 78.5379 81.1343C78.6367 81.0914 78.7535 81.1343 78.8029 81.2299C78.8062 81.2349 78.8687 81.3602 78.9346 81.5498C78.9708 81.6537 78.9197 81.7675 78.8177 81.8087C78.793 81.8186 78.7667 81.8235 78.7403 81.8235H78.7387Z" fill="black"/>
<path d="M65.9653 74.0063C67.6556 75.2874 68.9575 76.534 69.1402 77.8811C69.9927 84.1945 71.9019 82.6297 72.1553 81.243C72.2623 80.6577 72.1751 79.4062 72.4401 78.9693C72.6787 78.5752 73.4457 78.9891 74.1814 79.9883C74.9368 81.0138 77.0665 84.1384 78.2499 83.5316C79.1173 83.0864 78.9115 82.107 78.7404 81.6157C78.6959 81.5184 78.6548 81.4195 78.6202 81.3222C78.6202 81.3222 78.6778 81.4376 78.7404 81.6157C79.2736 82.7682 80.4866 83.802 81.1351 83.0996C81.6732 82.5176 81.2634 81.3255 81.0742 80.8638C81.0445 80.8028 81.0182 80.7401 80.9919 80.6758C80.9919 80.6758 81.0264 80.7467 81.0742 80.8638C81.5432 81.8564 82.4073 82.3675 82.8253 81.3205C83.2697 80.2092 82.4172 78.5159 82.4172 78.5159C82.4172 78.5159 83.0261 78.661 83.0261 77.7623C83.0261 76.7565 82.878 75.2858 80.0142 71.9584C78.4589 70.1497 75.6988 67.6995 73.314 65.6252" fill="white"/>
<path d="M77.9207 83.8153C76.7012 83.8153 75.1096 81.6191 74.2094 80.3791C74.1369 80.2786 74.0711 80.1879 74.0135 80.1104C73.4868 79.3964 72.9651 79.0271 72.7116 79.0271C72.7083 79.0271 72.7051 79.0271 72.7001 79.0271C72.6507 79.0287 72.6293 79.0469 72.6129 79.0749C72.473 79.3074 72.445 79.9208 72.4236 80.4138C72.4088 80.7419 72.3956 81.0502 72.3545 81.2777C72.2261 81.9785 71.7225 82.6958 71.0954 82.6958C71.0888 82.6958 71.0823 82.6958 71.0757 82.6958C70.391 82.6793 69.4627 81.8367 68.9328 77.9075C68.7484 76.5406 67.2639 75.2496 65.837 74.1696C65.7464 74.1004 65.7283 73.9717 65.7975 73.8811C65.8666 73.7904 65.995 73.7722 66.0855 73.8415C67.5799 74.9742 69.1352 76.3362 69.3393 77.8531C69.8907 81.9406 70.814 82.2786 71.0839 82.2852C71.0872 82.2852 71.0905 82.2852 71.0938 82.2852C71.4871 82.2852 71.8525 81.7295 71.948 81.2052C71.9842 81.0057 71.9973 80.7105 72.0105 80.3973C72.0368 79.8004 72.0632 79.1837 72.259 78.8622C72.3496 78.7122 72.4993 78.6248 72.6804 78.6165C72.6886 78.6165 72.6985 78.6165 72.7067 78.6165C73.1494 78.6165 73.7716 79.0914 74.341 79.8663C74.3986 79.9455 74.4645 80.0362 74.5385 80.1368C75.2709 81.1458 77.213 83.8269 78.1511 83.3487C78.8638 82.9843 78.7058 82.1599 78.5445 81.6933C78.4968 81.591 78.4556 81.4888 78.4211 81.3915C78.3849 81.2893 78.4342 81.1755 78.5346 81.1327C78.6334 81.0898 78.7502 81.1327 78.7996 81.2283C78.8029 81.2332 78.8622 81.3536 78.928 81.5383C79.3016 82.3412 79.9994 83.0321 80.5212 83.1146C80.7071 83.1442 80.8586 83.0931 80.982 82.9612C81.4494 82.455 81.0231 81.2893 80.8816 80.943C80.8553 80.8886 80.8256 80.821 80.7977 80.7518C80.7565 80.6495 80.8042 80.5325 80.9063 80.4863C81.0083 80.4418 81.1268 80.4863 81.1746 80.5852C81.1746 80.5852 81.2108 80.6611 81.2618 80.7847C81.5136 81.3173 81.8938 81.6916 82.1851 81.6916C82.1884 81.6916 82.1917 81.6916 82.195 81.6916C82.4106 81.685 82.5521 81.4443 82.6328 81.2448C83.0377 80.2307 82.2411 78.6248 82.2328 78.6083C82.1966 78.5374 82.2049 78.45 82.2559 78.3873C82.3069 78.3247 82.3875 78.295 82.4649 78.3148C82.4665 78.3148 82.5818 78.3379 82.6706 78.2637C82.7677 78.1845 82.8188 78.0098 82.8188 77.7608C82.8188 76.6841 82.59 75.2677 79.8562 72.0904C78.3503 70.341 75.7564 68.0227 73.1774 65.7787C73.0918 65.7045 73.082 65.5742 73.1577 65.4885C73.2317 65.4027 73.3617 65.3928 73.4473 65.4687C76.0379 67.7227 78.6449 70.0541 80.1673 71.8233C82.9932 75.1078 83.2302 76.6115 83.2302 77.7624C83.2302 78.1516 83.1265 78.4302 82.9224 78.5918C82.8566 78.6429 82.7891 78.6775 82.7249 78.6973C82.9537 79.2414 83.3816 80.4797 83.0163 81.3981C82.7891 81.9686 82.4517 82.0972 82.2098 82.1055C81.9975 82.1104 81.7802 82.0263 81.5729 81.8664C81.6469 82.361 81.614 82.887 81.2865 83.2415C81.0692 83.4773 80.7828 83.5746 80.4603 83.5235C79.9764 83.4476 79.4843 83.0552 79.0942 82.5704C79.0547 83.0849 78.7996 83.4839 78.3437 83.718C78.2104 83.7873 78.0689 83.8186 77.9224 83.8186L77.9207 83.8153Z" fill="black"/>
<path d="M81.0725 80.8655C81.0248 80.7484 80.9902 80.6775 80.9902 80.6775C81.0165 80.7418 81.0429 80.8045 81.0725 80.8655Z" fill="white"/>
<path d="M81.0725 81.0717C80.9951 81.0717 80.9211 81.0288 80.8865 80.9546C80.8553 80.8903 80.8256 80.8227 80.7993 80.7534C80.7581 80.6512 80.8059 80.5341 80.9079 80.488C81.01 80.4435 81.1285 80.488 81.1762 80.5869C81.1762 80.5869 81.2124 80.6628 81.2634 80.7864C81.3062 80.8903 81.2585 81.0074 81.1564 81.0535C81.1301 81.0651 81.1021 81.0717 81.0742 81.0717H81.0725Z" fill="black"/>
<path d="M82.4155 78.7237C82.3332 78.7237 82.2559 78.6742 82.223 78.5918C82.2131 78.5654 81.1927 75.9603 79.4909 74.1861C79.4119 74.1037 79.4151 73.9734 79.4974 73.8943C79.5797 73.8151 79.7098 73.8184 79.7888 73.9009C81.5498 75.7344 82.5669 78.3329 82.6081 78.4434C82.6492 78.5489 82.5966 78.6693 82.4912 78.7105C82.4665 78.7204 82.4419 78.7237 82.4172 78.7237H82.4155Z" fill="black"/>
<path d="M80.9902 80.8822C80.9079 80.8822 80.8322 80.8327 80.7993 80.7519C80.7894 80.7272 79.8233 78.3282 78.3141 76.3792C77.738 75.634 77.2607 75.2514 77.2558 75.2465C77.1669 75.1756 77.1521 75.047 77.2229 74.9579C77.2937 74.8689 77.4237 74.8541 77.5109 74.925C77.5323 74.9414 78.0293 75.3388 78.6383 76.127C80.1838 78.122 81.1696 80.5739 81.1795 80.5986C81.2223 80.7041 81.1696 80.8245 81.0643 80.8657C81.0396 80.8756 81.0133 80.8806 80.9886 80.8806L80.9902 80.8822Z" fill="black"/>
<path d="M78.6186 81.3222C78.6186 81.3222 77.1488 78.8457 76.3078 77.858C75.5622 76.9808 75.0932 76.6165 75.0932 76.6165" fill="white"/>
<path d="M78.6186 81.5284C78.5478 81.5284 78.4803 81.4922 78.4408 81.4279C78.426 81.4031 76.9711 78.9546 76.1514 77.9917C75.4306 77.1458 74.9714 76.7831 74.9664 76.7798C74.8776 76.7105 74.8611 76.5803 74.9302 76.4912C74.9993 76.4022 75.1294 76.3857 75.2182 76.455C75.238 76.4698 75.712 76.8425 76.4625 77.7246C77.3052 78.7139 78.7321 81.1162 78.793 81.2185C78.8506 81.3157 78.8193 81.4427 78.7206 81.5004C78.6877 81.5202 78.6515 81.5301 78.6153 81.5301L78.6186 81.5284Z" fill="black"/>
<path d="M60.3316 41.681C60.2872 41.681 60.2427 41.6678 60.2065 41.6382C58.5985 40.3916 57.0152 39.9333 55.6278 40.3108C55.5175 40.3405 55.4056 40.2762 55.376 40.1657C55.3464 40.0553 55.4105 39.9432 55.5208 39.9135C57.0366 39.5013 58.745 39.9844 60.4583 41.3117C60.5489 41.3809 60.5653 41.5112 60.4946 41.6002C60.4534 41.653 60.3925 41.681 60.3316 41.681Z" fill="black"/>
<path d="M41.2135 40.0222C41.1246 40.0222 41.044 39.9645 41.016 39.8755C40.9831 39.7667 41.0456 39.6513 41.1543 39.6183L42.2076 39.3001C42.3162 39.2671 42.4314 39.3297 42.4644 39.4386C42.4973 39.5474 42.4347 39.6628 42.3261 39.6958L41.2728 40.014C41.253 40.0206 41.2333 40.0222 41.2135 40.0222Z" fill="black"/>
<path d="M41.2135 42.9737C41.1576 42.9737 41.1032 42.9506 41.0621 42.9078C40.9847 42.8237 40.9913 42.6934 41.0736 42.6159L42.4759 41.3216C42.5598 41.2457 42.6898 41.2507 42.7672 41.3331C42.8445 41.4172 42.838 41.5475 42.7557 41.625L41.3534 42.9193C41.3139 42.9556 41.2645 42.9737 41.2135 42.9737Z" fill="black"/>
<path d="M43.7843 44.6768C43.7646 44.6768 43.7448 44.6735 43.7251 44.6685C43.6164 44.6356 43.5539 44.5218 43.5868 44.4113L44.1382 42.563C44.1711 42.4541 44.2863 42.3931 44.3949 42.4245C44.5036 42.4574 44.5661 42.5712 44.5332 42.6817L43.9818 44.53C43.9555 44.6191 43.8732 44.6768 43.7843 44.6768Z" fill="black"/>
<path d="M47.2801 44.3273C47.1961 44.3273 47.1155 44.2745 47.0859 44.1904L46.4819 42.4822C46.444 42.375 46.5 42.2563 46.6069 42.2184C46.7139 42.1805 46.8308 42.2365 46.8703 42.3437L47.4743 44.0519C47.5122 44.1591 47.4562 44.2778 47.3492 44.3157C47.3262 44.324 47.3031 44.3273 47.2801 44.3273Z" fill="black"/>
<path d="M49.9101 42.9736C49.8492 42.9736 49.79 42.9472 49.7505 42.8977L48.5523 41.4137C48.4816 41.3247 48.4947 41.1961 48.5836 41.1236C48.6725 41.051 48.8025 41.0658 48.8733 41.1549L50.0714 42.6388C50.1422 42.7279 50.129 42.8565 50.0402 42.929C50.0023 42.9604 49.9562 42.9752 49.9101 42.9752V42.9736Z" fill="black"/>
<path d="M51.6136 40.9307C51.5708 40.9307 51.5264 40.9176 51.4885 40.8879L50.1965 39.9002C50.106 39.831 50.0895 39.7024 50.1587 39.6117C50.2278 39.521 50.3562 39.5045 50.4467 39.5737L51.7387 40.5614C51.8292 40.6307 51.8456 40.7593 51.7765 40.8499C51.7354 40.9027 51.6745 40.9307 51.6136 40.9307Z" fill="black"/>
<path d="M52.0234 38.7856C52.0036 38.7856 51.9839 38.7823 51.9642 38.7774L50.7907 38.4245C50.682 38.3916 50.6195 38.2761 50.6524 38.1673C50.6853 38.0585 50.7989 37.9958 50.9092 38.0288L52.0827 38.3817C52.1913 38.4146 52.2538 38.5301 52.2209 38.6389C52.1946 38.7279 52.1123 38.7856 52.0234 38.7856Z" fill="black"/>
<path d="M41.7385 38.464C41.6381 38.464 41.5493 38.3898 41.5345 38.286C41.5196 38.1738 41.597 38.07 41.7106 38.0535L42.8462 37.8968C42.9581 37.882 43.0618 37.9595 43.0783 38.0733C43.0931 38.1854 43.0157 38.2893 42.9022 38.3058L41.7665 38.4624C41.7566 38.4624 41.7468 38.464 41.7385 38.464Z" fill="black"/>
<path d="M45.0022 44.8006C43.9654 44.8006 42.9861 44.5549 42.1599 44.0553C41.258 43.5112 40.7148 42.789 40.5437 41.9085C40.1947 40.113 41.518 38.319 41.5756 38.2432C41.6447 38.1525 41.7731 38.1344 41.8636 38.202C41.9541 38.2696 41.9739 38.3998 41.9048 38.4905C41.8916 38.507 40.6342 40.2168 40.9485 41.831C41.0967 42.5912 41.5756 43.221 42.3722 43.7025C43.7596 44.5401 46.3601 44.883 49.1185 43.0891C50.9783 41.8805 52.0135 40.1608 51.821 38.6043C51.8078 38.4905 51.8868 38.3883 52.0004 38.3751C52.1123 38.3602 52.216 38.441 52.2291 38.5548C52.4415 40.2696 51.3354 42.1394 49.344 43.4354C47.9549 44.3389 46.4259 44.8006 45.0039 44.8006H45.0022Z" fill="black"/>
<path d="M35.2753 58.5469C35.2753 58.5469 35.2589 58.5469 35.2506 58.5469C35.1371 58.5337 35.0564 58.4315 35.0696 58.3177C35.1354 57.7505 35.1881 57.1701 35.2276 56.5914C35.351 54.7447 35.3461 53.1041 35.3395 51.3662C35.3346 50.2054 35.3313 49.0067 35.3658 47.6943C35.4037 46.2647 35.6456 44.8945 36.0818 43.6216C36.118 43.5145 36.2365 43.4567 36.3435 43.493C36.4505 43.5293 36.5081 43.648 36.4718 43.7552C36.0489 44.9885 35.8152 46.3175 35.7789 47.7058C35.7444 49.0117 35.7477 50.2071 35.7526 51.3646C35.7592 53.109 35.7658 54.7579 35.6407 56.6194C35.6012 57.2048 35.5469 57.7917 35.4811 58.3655C35.4695 58.4711 35.3807 58.5486 35.277 58.5486L35.2753 58.5469Z" fill="black"/>
<path d="M51.4046 66.3393C51.347 66.3393 51.291 66.3162 51.2499 66.2701C51.1445 66.1513 48.6626 63.3087 47.7129 59.8759C47.5385 59.2444 46.9871 58.7959 46.3436 58.7596C44.2698 58.6442 40.4828 58.3391 38.4189 57.5972C37.9926 57.4438 37.5071 57.6153 37.2635 58.0061C36.7846 58.7728 36.0127 59.8858 35.0498 60.8322C34.9692 60.9113 34.8392 60.9113 34.7585 60.8289C34.6795 60.7481 34.6795 60.6178 34.7618 60.537C35.695 59.6186 36.4472 58.5337 36.9146 57.7868C37.2602 57.2344 37.9498 56.992 38.5571 57.208C40.5733 57.9335 44.3159 58.2336 46.3666 58.3474C47.1863 58.3936 47.8874 58.9624 48.1079 59.7654C49.0329 63.1043 51.5329 65.9683 51.5576 65.9963C51.6333 66.0821 51.6251 66.2123 51.5395 66.2865C51.5 66.3212 51.4523 66.3377 51.4029 66.3377L51.4046 66.3393Z" fill="black"/>
<path d="M43.6263 22.2346C43.6263 22.2346 41.5098 22.3764 40.9452 23.8604C40.3807 25.3443 40.8037 27.4961 41.3682 27.7285C41.9328 27.9594 45.7412 23.5075 43.6247 22.2363L43.6263 22.2346Z" fill="black"/>
<path d="M43.4025 33.7979C43.4025 33.7979 43.0305 36.9686 43.0305 37.5902C43.0305 38.2118 41.0851 40.7824 43.4025 42.1905C45.9782 43.7569 50.4154 40.6983 50.8499 38.6471L50.3529 31.6841C50.3529 31.6841 44.209 32.4294 43.4025 33.7979Z" fill="white"/>
<path d="M45.0516 42.8286C44.3949 42.8286 43.7991 42.6753 43.2955 42.3686C41.36 41.1913 42.1714 39.254 42.6059 38.2135C42.7129 37.958 42.8232 37.6942 42.8232 37.5919C42.8232 36.9654 43.1819 33.9051 43.1968 33.7749C43.2001 33.7468 43.2099 33.7188 43.2247 33.6941C44.0592 32.2794 49.6896 31.5572 50.3282 31.4797C50.3842 31.4731 50.4401 31.4896 50.4845 31.5259C50.5273 31.5621 50.5553 31.6133 50.5586 31.671L51.0557 38.634C51.0557 38.6538 51.0557 38.6719 51.0524 38.6917C50.7857 39.9481 49.181 41.503 47.3179 42.3093C46.5181 42.6555 45.7511 42.8286 45.0533 42.8286H45.0516ZM43.6 33.8689C43.5539 34.2629 43.2346 37.0297 43.2346 37.5919C43.2346 37.7766 43.1293 38.0272 42.9844 38.3735C42.5434 39.4287 41.8751 41.0248 43.5078 42.0174C44.7554 42.7759 46.3255 42.2895 47.1517 41.9317C48.8601 41.1913 50.3858 39.7486 50.6409 38.634L50.162 31.9166C48.3631 32.1524 44.2682 32.8779 43.6 33.8689Z" fill="black"/>
<path d="M41.9229 25.0988C40.8333 27.018 38.6954 30.1442 39.9215 33.7008C41.0489 36.9704 45.0862 38.3571 49.9924 34.9292C54.8987 31.5012 54.5119 25.938 51.9296 23.7401C49.3473 21.5406 44.4213 20.6964 41.9229 25.0988Z" fill="white"/>
<path d="M44.5776 37.1287C43.7382 37.1287 42.9548 36.9621 42.2455 36.6274C41.0654 36.0718 40.1717 35.0561 39.7273 33.7683C39.2451 32.3685 39.2204 30.9307 39.6516 29.3742C39.6812 29.2637 39.7948 29.2011 39.9051 29.2307C40.0153 29.2604 40.0779 29.3742 40.0483 29.4847C39.6384 30.9571 39.6615 32.3141 40.1157 33.6331C40.5288 34.8318 41.3254 35.7387 42.4199 36.2548C43.7646 36.8896 45.4203 36.8698 47.2077 36.1987C47.3147 36.1592 47.4332 36.2136 47.4727 36.3191C47.5122 36.4246 47.4578 36.545 47.3525 36.5846C46.3864 36.9473 45.4532 37.1287 44.5776 37.1287Z" fill="black"/>
<path d="M41.9229 25.3048C41.8883 25.3048 41.8537 25.2966 41.8208 25.2785C41.7221 25.2224 41.6875 25.0971 41.7435 24.9965C42.7409 23.2421 44.2155 22.1457 46.0095 21.8291C48.0191 21.4746 50.3957 22.1622 52.0629 23.5834C52.1501 23.6576 52.16 23.7879 52.0859 23.8736C52.0119 23.961 51.8819 23.9709 51.7963 23.8967C50.2179 22.5529 47.9746 21.9 46.0803 22.2347C44.4114 22.5298 43.0338 23.5554 42.1006 25.1993C42.0628 25.2669 41.9936 25.3032 41.9212 25.3032L41.9229 25.3048Z" fill="black"/>
<path d="M50.0945 29.9116C50.0945 29.9116 48.9638 29.6726 49.8361 27.262C50.3973 25.712 50.1504 24.919 47.8413 24.6354C45.5306 24.3534 43.0898 25.5538 42.4561 22.7986C41.8208 20.0433 43.7679 17.2156 48.5194 19.1942C51.5543 20.4572 55.3365 23.8588 54.9135 26.7558C54.4905 29.6528 56.3355 30.4739 53.2907 32.8911C50.2459 35.3083 50.7232 36.9192 50.7232 36.9192C50.7232 36.9192 49.446 34.5317 49.446 32.741C49.446 30.9504 50.0961 29.9116 50.0961 29.9116H50.0945Z" fill="#272727"/>
<path d="M49.5415 29.6265C49.5415 29.6265 51.4786 28.624 51.8654 30.3701C52.2522 32.1162 49.767 33.4419 48.2824 32.667" fill="white"/>
<path d="M50.817 30.952C50.817 30.952 50.2838 30.5794 49.4444 30.952Z" fill="white"/>
<path d="M49.4444 31.1581C49.3654 31.1581 49.2897 31.1119 49.2567 31.0361C49.2107 30.9322 49.2568 30.8102 49.3621 30.764C50.2969 30.3502 50.9092 30.764 50.9355 30.7838C51.0293 30.8481 51.0524 30.9767 50.9865 31.0707C50.9223 31.163 50.7956 31.1878 50.7018 31.1235C50.6804 31.1086 50.2393 30.8267 49.53 31.1416C49.502 31.1531 49.474 31.1597 49.4477 31.1597L49.4444 31.1581Z" fill="black"/>
<path d="M40.5486 30.1061C40.2737 30.1061 39.9989 30.055 39.7356 29.9478C38.4699 29.4301 37.935 27.7961 38.544 26.3055C38.8353 25.5899 39.3455 25.0112 39.9791 24.6781C40.6243 24.3385 41.3221 24.289 41.941 24.5429C42.5598 24.7969 43.0239 25.3195 43.2461 26.0154C43.465 26.698 43.4239 27.4696 43.1326 28.1852C42.6503 29.3658 41.5954 30.1061 40.5486 30.1061ZM41.123 24.7952C40.807 24.7952 40.4828 24.8777 40.1701 25.0425C39.622 25.3311 39.1793 25.8356 38.9242 26.4622C38.4024 27.7417 38.8353 29.135 39.8903 29.5669C40.9452 29.9989 42.229 29.3097 42.7507 28.0302C43.0058 27.4037 43.0421 26.7342 42.8544 26.1423C42.6701 25.5636 42.2899 25.1316 41.7846 24.9255C41.574 24.8381 41.3501 24.7952 41.123 24.7952Z" fill="black"/>
<path d="M45.6622 32.2001C45.3874 32.2001 45.1125 32.149 44.8492 32.0419C43.5835 31.5241 43.0486 29.8901 43.6576 28.3996C43.9489 27.684 44.4591 27.1052 45.0928 26.7722C45.7379 26.4325 46.4341 26.3847 47.0546 26.637C47.6734 26.8909 48.1376 27.4136 48.3598 28.1094C48.5787 28.792 48.5375 29.5637 48.2462 30.2793C47.764 31.4598 46.709 32.2001 45.6606 32.2001H45.6622ZM46.2366 26.8892C45.9206 26.8892 45.5964 26.9717 45.2837 27.1366C44.7356 27.4251 44.2929 27.9297 44.0378 28.5562C43.5161 29.8357 43.9489 31.229 45.0039 31.661C46.0589 32.093 47.3426 31.4038 47.8644 30.1243C48.1195 29.4977 48.1557 28.8283 47.9664 28.2363C47.7821 27.6576 47.4019 27.2256 46.8966 27.0195C46.6859 26.9321 46.4621 26.8892 46.235 26.8892H46.2366Z" fill="black"/>
<path d="M43.3992 32.4836C44.0378 32.7491 44.7142 32.5974 45.18 32.3484Z" fill="white"/>
<path d="M44.1151 32.8266C43.8386 32.8266 43.5671 32.7755 43.3202 32.6733C43.2149 32.6304 43.1655 32.5084 43.2083 32.4045C43.2511 32.299 43.3729 32.2495 43.4765 32.2924C44.1908 32.5892 44.8854 32.2709 45.0812 32.1654C45.1816 32.111 45.3067 32.1506 45.3594 32.2495C45.4137 32.3501 45.3742 32.4754 45.2755 32.5282C44.9068 32.7244 44.5052 32.8249 44.1151 32.8249V32.8266Z" fill="black"/>
<path d="M45.0187 28.8711C44.8607 29.2569 44.9627 29.6642 45.2442 29.7796C45.5273 29.895 45.8844 29.6757 46.0408 29.2899C46.1988 28.904 46.0967 28.4968 45.8153 28.3814C45.5322 28.2659 45.1751 28.4852 45.0187 28.8711Z" fill="black"/>
<path d="M41.1658 27.4135C41.0078 27.7994 41.1098 28.2066 41.3913 28.3221C41.6727 28.4375 42.0315 28.2182 42.1879 27.8324C42.3459 27.4465 42.2438 27.0393 41.9624 26.9238C41.6793 26.8084 41.3221 27.0277 41.1658 27.4135Z" fill="black"/>
<path d="M45.789 26.2099C46.2103 25.9115 46.7863 26.1143 47.1073 26.4589C47.2126 26.5693 47.2965 26.6979 47.3591 26.8348C47.3838 26.8859 47.3607 26.9469 47.3097 26.9717C47.2768 26.9881 47.2373 26.9832 47.2093 26.9651C46.9081 26.7375 46.6004 26.5133 46.2251 26.4473C46.1033 26.4193 45.9667 26.4078 45.8383 26.3929C45.7478 26.3863 45.7165 26.2594 45.789 26.2099Z" fill="black"/>
<path d="M41.7978 24.7705C42.1582 24.4522 42.7178 24.6303 42.991 24.9683C43.0634 25.0689 43.312 25.3772 43.1326 25.4564C43.0997 25.4679 43.0651 25.463 43.0388 25.4448C42.7837 25.2437 42.5269 25.0343 42.1994 24.9881C42.094 24.965 41.9706 24.9617 41.8554 24.9485C41.7698 24.9419 41.732 24.8265 41.7978 24.7705Z" fill="black"/>
<path d="M44.0691 26.1045C44.0691 26.1045 41.62 28.99 41.6168 29.7583C41.6135 30.5267 42.8297 30.6899 42.8297 30.6899" fill="white"/>
<path d="M42.8297 30.896C42.8199 30.896 42.8116 30.896 42.8018 30.8943C42.7442 30.8861 41.4061 30.6965 41.411 29.7566C41.4143 28.9536 43.4963 26.4606 43.9127 25.9693C43.9868 25.8819 44.1168 25.872 44.2024 25.9462C44.2896 26.0204 44.2995 26.1506 44.2254 26.2364C43.2972 27.3295 41.8241 29.2537 41.8225 29.7583C41.8192 30.3304 42.8462 30.4838 42.8561 30.4854C42.968 30.5003 43.047 30.6041 43.0322 30.7179C43.019 30.8218 42.9301 30.896 42.8281 30.896H42.8297Z" fill="black"/>
<path d="M44.3653 27.8308C44.2978 27.8308 44.2336 27.7978 44.1941 27.7384C43.7053 26.9964 43.0881 27.097 43.0618 27.102C42.9515 27.1218 42.8429 27.0476 42.8232 26.9371C42.8018 26.8266 42.8742 26.7194 42.9844 26.6964C43.0207 26.6898 43.8913 26.5298 44.5381 27.5109C44.6007 27.6065 44.5743 27.7335 44.4805 27.7961C44.446 27.8192 44.4065 27.8308 44.367 27.8308H44.3653Z" fill="black"/>
</g>
<defs>
<clipPath id="clip0_45_99">
<rect width="98" height="123" fill="white"/>
</clipPath>
</defs>
</svg>
