<svg width="19" height="19" viewBox="0 0 19 19" fill="none" xmlns="http://www.w3.org/2000/svg">
<path d="M17.5 8.16667H10.5V1.16667C10.5 0.857247 10.3771 0.560501 10.1583 0.341709C9.9395 0.122917 9.64275 0 9.33333 0C9.02391 0 8.72717 0.122917 8.50838 0.341709C8.28958 0.560501 8.16667 0.857247 8.16667 1.16667V8.16667H1.16667C0.857247 8.16667 0.560501 8.28958 0.341709 8.50838C0.122917 8.72717 0 9.02391 0 9.33333C0 9.64275 0.122917 9.9395 0.341709 10.1583C0.560501 10.3771 0.857247 10.5 1.16667 10.5H8.16667V17.5C8.16667 17.8094 8.28958 18.1062 8.50838 18.325C8.72717 18.5438 9.02391 18.6667 9.33333 18.6667C9.64275 18.6667 9.9395 18.5438 10.1583 18.325C10.3771 18.1062 10.5 17.8094 10.5 17.5V10.5H17.5C17.8094 10.5 18.1062 10.3771 18.325 10.1583C18.5438 9.9395 18.6667 9.64275 18.6667 9.33333C18.6667 9.02391 18.5438 8.72717 18.325 8.50838C18.1062 8.28958 17.8094 8.16667 17.5 8.16667Z" fill="black"/>
</svg>
