<svg width="133" height="191" viewBox="0 0 133 191" fill="none" xmlns="http://www.w3.org/2000/svg">
<g clip-path="url(#clip0_45_346)">
<path d="M118.05 119.493H14.9527V125.236H118.05V119.493Z" fill="white"/>
<path d="M118.047 125.594H14.9527C14.7529 125.594 14.5908 125.433 14.5908 125.233V119.49C14.5908 119.291 14.7529 119.129 14.9527 119.129H118.047C118.247 119.129 118.409 119.291 118.409 119.49V125.233C118.409 125.433 118.247 125.594 118.047 125.594ZM15.3118 124.872H117.685V119.851H15.3147V124.872H15.3118Z" fill="black"/>
<path d="M112.091 191H21.2249C21.0251 191 20.863 190.838 20.863 190.639V125.236C20.863 125.037 21.0251 124.875 21.2249 124.875C21.4248 124.875 21.5869 125.037 21.5869 125.236V190.278H111.729V125.236C111.729 125.037 111.891 124.875 112.091 124.875C112.291 124.875 112.453 125.037 112.453 125.236V190.639C112.453 190.838 112.291 191 112.091 191Z" fill="black"/>
<path d="M49.0704 166.562C48.8301 168.851 48.2857 172.811 48.4189 173.626C50.4141 185.679 48.4189 190.639 48.4189 190.639H12.8011C12.306 180.283 22.9276 176.835 24.0453 171.655C24.2104 170.895 24.4102 169.366 24.6361 167.285L49.0733 166.559L49.0704 166.562Z" fill="white"/>
<path d="M48.4189 191H12.8011C12.6071 191 12.4479 190.85 12.4392 190.656C12.1264 184.083 16.2239 180.179 19.5135 177.043C21.5376 175.112 23.2867 173.447 23.6892 171.58C23.8427 170.866 24.0396 169.409 24.2741 167.247C24.2944 167.068 24.4421 166.929 24.6245 166.926L49.0618 166.201C49.1689 166.189 49.2674 166.238 49.3369 166.317C49.4092 166.392 49.444 166.496 49.4324 166.6C49.3716 167.189 49.2876 167.889 49.2037 168.617C48.9749 170.577 48.6882 173.013 48.778 173.568C50.7645 185.584 48.8388 190.567 48.7577 190.775C48.7027 190.91 48.5695 191 48.4218 191H48.4189ZM13.1486 190.277H48.1583C48.4971 189.182 49.7799 184.075 48.0598 173.687C47.9585 173.077 48.1699 171.167 48.4797 168.533C48.5463 167.973 48.61 167.426 48.665 166.938L24.9604 167.64C24.7374 169.655 24.5492 171.031 24.3986 171.733C23.9498 173.817 22.1255 175.554 20.0145 177.566C16.7249 180.702 13.0038 184.245 13.1486 190.277Z" fill="black"/>
<path d="M49.0705 187.913H12.9981C12.7983 187.913 12.6361 187.751 12.6361 187.552C12.6361 187.353 12.7983 187.191 12.9981 187.191H49.0734C49.2732 187.191 49.4353 187.353 49.4353 187.552C49.4353 187.751 49.2732 187.913 49.0734 187.913H49.0705Z" fill="black"/>
<path d="M18.7838 178.245C18.7838 178.245 22.3484 175.346 29.249 176.381C36.1496 177.415 39.5145 180.514 40.8928 181.031C42.2712 181.549 44.9469 180.601 45.5521 179.826C46.1573 179.051 45.7114 176.248 48.6505 175.109" fill="white"/>
<path d="M41.8542 181.54C41.4575 181.54 41.0868 181.488 40.7683 181.369C40.4006 181.231 39.9488 180.953 39.3233 180.569C37.4614 179.424 34.3455 177.508 29.1969 176.739C25.7249 176.219 23.1419 176.733 21.584 177.256C19.8986 177.823 19.0212 178.522 19.0125 178.528C18.8562 178.655 18.6303 178.629 18.5029 178.476C18.3755 178.323 18.4015 178.095 18.555 177.967C18.7056 177.846 22.3253 174.982 29.304 176.025C34.5975 176.817 37.7944 178.782 39.7027 179.956C40.2702 180.306 40.7191 180.58 41.0231 180.693C42.277 181.164 44.7876 180.222 45.2683 179.603C45.3899 179.447 45.4768 179.069 45.5666 178.67C45.8359 177.467 46.2442 175.655 48.5231 174.771C48.7085 174.698 48.9199 174.791 48.9923 174.976C49.0647 175.161 48.972 175.372 48.7867 175.444C46.8668 176.187 46.5251 177.713 46.2731 178.829C46.1602 179.329 46.0646 179.762 45.8417 180.046C45.2886 180.757 43.3919 181.54 41.8571 181.54H41.8542Z" fill="black"/>
<path d="M48.7867 185.953C47.6602 185.953 46.7452 184.8 46.7452 183.384C46.7452 181.968 47.6602 180.814 48.7867 180.814C48.9981 180.814 49.2008 180.852 49.389 180.927C49.5743 181.002 49.6641 181.21 49.5917 181.395C49.5193 181.58 49.3079 181.673 49.1226 181.598C49.0183 181.557 48.9054 181.534 48.7867 181.534C48.0599 181.534 47.4691 182.364 47.4691 183.381C47.4691 184.398 48.0599 185.228 48.7867 185.228C48.8996 185.228 49.0126 185.208 49.1226 185.167C49.3079 185.098 49.5193 185.19 49.5888 185.375C49.6612 185.563 49.5656 185.771 49.3803 185.841C49.1892 185.913 48.9894 185.951 48.7867 185.951V185.953Z" fill="black"/>
<path d="M114.668 190.639H78.6361C79.1313 181.381 85.9537 177.753 85.9537 177.753C85.9537 177.753 84.9662 175.959 83.4662 173.175L106.939 166.189C108.347 169.143 111.254 176.068 111.839 177.392C115.166 184.907 114.668 190.639 114.668 190.639Z" fill="white"/>
<path d="M114.668 191H78.6361C78.5376 191 78.4421 190.959 78.3726 190.887C78.3031 190.815 78.2683 190.72 78.2741 190.618C78.5347 185.734 80.556 182.413 82.2066 180.488C83.5676 178.898 84.8822 177.985 85.4701 177.618C85.1255 176.99 84.2799 175.441 83.1506 173.343C83.0985 173.247 83.0927 173.135 83.1361 173.034C83.1766 172.932 83.2635 172.857 83.3678 172.825L106.841 165.839C107.012 165.79 107.194 165.871 107.272 166.03C108.303 168.189 110.156 172.531 111.265 175.123C111.688 176.112 112.018 176.883 112.175 177.242C115.499 184.754 115.053 190.428 115.033 190.665C115.015 190.853 114.859 190.994 114.671 190.994L114.668 191ZM79.0212 190.277H114.323C114.364 188.962 114.309 183.864 111.509 177.537C111.349 177.178 111.019 176.404 110.594 175.412C109.534 172.932 107.788 168.851 106.745 166.626L83.9961 173.395C85.36 175.924 86.2606 177.563 86.2722 177.58C86.3185 177.664 86.3301 177.765 86.3011 177.858C86.2722 177.95 86.2085 178.028 86.1245 178.074C86.0579 178.109 79.6641 181.624 79.0212 190.28V190.277Z" fill="black"/>
<path d="M114.575 187.867H79.0733C78.8735 187.867 78.7114 187.705 78.7114 187.506C78.7114 187.306 78.8735 187.144 79.0733 187.144H114.575C114.775 187.144 114.937 187.306 114.937 187.506C114.937 187.705 114.775 187.867 114.575 187.867Z" fill="black"/>
<path d="M85.9536 177.753C85.9536 177.753 89.2084 175.427 96.1698 176.606C100.797 177.389 102.561 178.875 104.313 179.094C106.065 179.314 107.081 178.144 107.29 177.655C107.947 176.106 106.809 174.51 110.006 173.085" fill="white"/>
<path d="M104.735 179.482C104.585 179.482 104.429 179.473 104.266 179.453C103.516 179.358 102.792 179.06 101.877 178.681C100.525 178.12 98.8397 177.424 96.1091 176.961C89.4083 175.826 86.194 178.025 86.1621 178.048C86 178.164 85.7741 178.123 85.6583 177.964C85.5424 177.803 85.5801 177.577 85.7423 177.461C85.8812 177.363 89.2027 175.06 96.2307 176.25C99.0424 176.727 100.844 177.47 102.155 178.016C103.021 178.375 103.702 178.658 104.356 178.739C105.978 178.944 106.829 177.808 106.954 177.516C107.124 177.115 107.159 176.701 107.194 176.259C107.29 175.129 107.397 173.851 109.852 172.756C110.035 172.675 110.249 172.756 110.33 172.938C110.411 173.12 110.33 173.334 110.148 173.415C108.083 174.334 108.005 175.253 107.915 176.317C107.874 176.794 107.834 177.288 107.62 177.794C107.371 178.383 106.363 179.482 104.735 179.482Z" fill="black"/>
<path d="M112.256 181.71C112.444 183.08 111.905 184.286 111.054 184.404C110.2 184.523 109.354 183.505 109.166 182.135C108.978 180.765 109.516 179.56 110.368 179.442C111.219 179.323 112.068 180.34 112.256 181.71Z" fill="white"/>
<path d="M110.915 184.777C109.919 184.777 109.013 183.687 108.804 182.187C108.703 181.459 108.787 180.742 109.042 180.173C109.322 179.546 109.774 179.158 110.316 179.086C110.857 179.011 111.399 179.262 111.836 179.788C112.236 180.268 112.511 180.933 112.612 181.661C112.832 183.254 112.169 184.615 111.1 184.763C111.037 184.771 110.976 184.774 110.915 184.774V184.777ZM110.504 179.797C110.475 179.797 110.446 179.797 110.417 179.803C110.032 179.855 109.806 180.242 109.705 180.471C109.505 180.919 109.438 181.494 109.522 182.092C109.681 183.242 110.359 184.136 111.002 184.052C111.645 183.962 112.056 182.916 111.897 181.765C111.816 181.167 111.596 180.632 111.283 180.254C111.135 180.077 110.848 179.8 110.504 179.8V179.797Z" fill="black"/>
<path d="M108.778 163.767C109.38 165.524 108.63 167.467 106.994 168.351C104.77 169.557 100.936 171.239 94.6438 172.99C90.3812 174.178 86.8166 174.291 84.4507 174.146C82.5714 174.031 80.915 172.866 80.1911 171.132C75.2654 159.354 69.9083 141.298 68.6921 136.381C66.9257 129.256 72.8706 121.84 72.8706 121.84C72.8706 121.84 57.2596 122.23 55.9884 123.536C55.0154 124.534 53.7152 149.645 52.4672 163.822C52.2442 166.354 50.3793 168.444 47.8803 168.938C44.666 169.574 39.5 170.109 32.0087 169.528C28.9044 169.288 26.6689 168.796 25.0646 168.25C22.7567 167.464 21.306 165.189 21.5724 162.773C23.1361 148.622 26.3475 121.267 28.7046 114.143C31.2471 106.449 41.7529 101.255 46.748 97.766C53.0868 93.3351 53.9498 89.8494 53.9498 89.8494H100.305C106.276 98.1793 106.884 104.746 106.624 111.27C106.363 117.793 98.0376 129.933 98.0811 132.803C98.11 134.78 105.184 153.252 108.784 163.767H108.778Z" fill="black"/>
<path d="M72.8649 122.204C72.8069 122.204 72.749 122.19 72.694 122.161C72.5174 122.068 72.4508 121.848 72.5434 121.672C73.2123 120.418 74.2056 118.172 74.029 117.487C73.9102 117.027 73.5048 116.923 72.6766 116.747C70.4266 116.267 67.027 115.545 67.2558 104.102C67.2587 103.902 67.4122 103.74 67.6264 103.749C67.8262 103.752 67.9855 103.917 67.9797 104.119C67.7625 114.964 70.8118 115.614 72.8272 116.042C73.6844 116.224 74.4923 116.394 74.7297 117.308C75.0309 118.464 73.4961 121.432 73.1834 122.013C73.1197 122.135 72.9923 122.204 72.8649 122.204Z" fill="white"/>
<path d="M106.401 113.336C106.346 113.336 106.291 113.325 106.238 113.299C106.036 113.198 101.24 110.712 99.8562 102.784C99.8214 102.587 99.9546 102.399 100.152 102.365C100.348 102.33 100.537 102.463 100.571 102.659C101.261 106.605 102.853 109.111 104.069 110.518C105.384 112.044 106.554 112.646 106.566 112.651C106.742 112.741 106.815 112.958 106.725 113.137C106.661 113.264 106.534 113.336 106.401 113.336Z" fill="white"/>
<path d="M38.3098 120.481C42.4136 120.481 45.7403 118.152 45.7403 115.279C45.7403 112.405 42.4136 110.076 38.3098 110.076C34.2061 110.076 30.8793 112.405 30.8793 115.279C30.8793 118.152 34.2061 120.481 38.3098 120.481Z" fill="white"/>
<path d="M79.2876 139.991C83.3914 139.991 86.7181 137.662 86.7181 134.789C86.7181 131.915 83.3914 129.586 79.2876 129.586C75.1839 129.586 71.8571 131.915 71.8571 134.789C71.8571 137.662 75.1839 139.991 79.2876 139.991Z" fill="white"/>
<path d="M91.4845 74.6261L93.0743 78.0916C93.0743 78.0916 68.831 80.9328 66.4768 81.0311C64.667 81.1062 62.2606 80.716 59.7616 80.1958C58.4092 79.9125 57.1235 79.4211 55.9536 78.7419C55.9363 73.5422 55.9855 69.0303 56.0839 65.1197C54.6534 66.2672 52.9681 67.5823 51.1409 68.9321C46.3137 56.8909 39.1901 53.5034 39.1901 53.5034C40.4179 52.1969 42.0366 50.5321 44.0984 48.506C51.6534 41.0778 58.2587 41.0778 58.2587 41.0778C58.2587 41.0778 71.3851 38.514 85.9102 41.8929C98.2316 44.7601 106.348 56.0845 110.596 64.8393C105.152 72.256 91.4845 74.6261 91.4845 74.6261Z" fill="#F7F552"/>
<mask id="mask0_45_346" style="mask-type:luminance" maskUnits="userSpaceOnUse" x="39" y="40" width="72" height="42">
<path d="M91.4845 74.6261L93.0743 78.0916C93.0743 78.0916 68.831 80.9328 66.4768 81.0311C64.667 81.1062 62.2606 80.716 59.7616 80.1958C58.4092 79.9125 57.1235 79.4211 55.9536 78.7419C55.9363 73.5422 55.9855 69.0303 56.0839 65.1197C54.6534 66.2672 52.9681 67.5823 51.1409 68.9321C46.3137 56.8909 39.1901 53.5034 39.1901 53.5034C40.4179 52.1969 42.0366 50.5321 44.0984 48.506C51.6534 41.0778 58.2587 41.0778 58.2587 41.0778C58.2587 41.0778 71.3851 38.514 85.9102 41.8929C98.2316 44.7601 106.348 56.0845 110.596 64.8393C105.152 72.256 91.4845 74.6261 91.4845 74.6261Z" fill="white"/>
</mask>
<g mask="url(#mask0_45_346)">
<path d="M86.6036 40.2943L83.375 41.4883L84.5712 44.7108L87.7998 43.5169L86.6036 40.2943Z" fill="black"/>
<path d="M82.9286 57.5631L79.7001 58.7571L80.8963 61.9796L84.1248 60.7857L82.9286 57.5631Z" fill="black"/>
<path d="M95.8672 65.2433L92.6387 66.4373L93.8349 69.6598L97.0634 68.4658L95.8672 65.2433Z" fill="black"/>
<path d="M101.764 50.5948L98.5354 51.7888L99.7316 55.0114L102.96 53.8174L101.764 50.5948Z" fill="black"/>
<path d="M48.928 54.225L45.6994 55.4189L46.8956 58.6415L50.1242 57.4475L48.928 54.225Z" fill="black"/>
<path d="M54.8276 39.5765L51.5991 40.7705L52.7953 43.9931L56.0238 42.7991L54.8276 39.5765Z" fill="black"/>
<path d="M67.7663 47.2596L64.5377 48.4536L65.7339 51.6762L68.9625 50.4822L67.7663 47.2596Z" fill="black"/>
<path d="M45.253 71.4967L42.0245 72.6907L43.2207 75.9132L46.4493 74.7192L45.253 71.4967Z" fill="black"/>
<path d="M58.1917 79.1769L54.9631 80.3708L56.1593 83.5934L59.3879 82.3994L58.1917 79.1769Z" fill="black"/>
<path d="M64.0914 64.5314L60.8628 65.7253L62.059 68.9479L65.2876 67.7539L64.0914 64.5314Z" fill="black"/>
<path d="M77.029 72.2115L73.8004 73.4055L74.9966 76.6281L78.2252 75.4341L77.029 72.2115Z" fill="black"/>
</g>
<path d="M41.194 65.8247C41.0058 65.8247 40.8494 65.6802 40.832 65.4923C40.4643 60.94 38.5212 54.9946 38.501 54.9368C38.4373 54.746 38.5415 54.5437 38.7326 54.4801C38.9237 54.4165 39.1264 54.5206 39.1901 54.7113C39.2104 54.772 41.1795 60.7955 41.556 65.4345C41.5734 65.634 41.4228 65.8074 41.223 65.8247C41.2143 65.8247 41.2027 65.8247 41.194 65.8247Z" fill="black"/>
<path d="M30.3176 79.3226C27.5174 79.3226 25.3542 78.4873 23.8658 76.8225C20.9179 73.5275 20.805 67.1629 23.5357 57.908C23.5907 57.7173 23.7934 57.6074 23.9845 57.6623C24.1757 57.7201 24.2857 57.9196 24.2307 58.1103C21.5782 67.1109 21.6361 73.2442 24.4073 76.3398C26.2201 78.363 29.1911 79.0307 33.2423 78.3226C38.2345 77.4497 45.6158 72.5736 50.9295 68.6399C51.0888 68.5214 51.3176 68.5561 51.4363 68.715C51.555 68.874 51.5203 69.1023 51.361 69.2208C45.9836 73.2037 38.4981 78.1376 33.3668 79.0365C32.2809 79.2272 31.2645 79.3226 30.3204 79.3226H30.3176Z" fill="black"/>
<path d="M49.6901 78.9674C49.6901 69.5565 42.0743 66.6314 32.6776 66.6314C31.8523 66.6314 31.0444 66.6748 30.2509 66.7557C28.499 66.9378 26.776 66.5418 25.1457 65.877C24.7953 65.7354 24.3928 65.7528 23.9295 65.9956C22.4527 66.7702 21.526 68.6923 21.054 69.9669C18.1554 71.9352 16.2065 74.6319 15.7635 77.6523C14.7673 77.9934 14.1679 79.0079 14.3533 80.0455L14.9527 83.4244C15.1322 84.4446 16.0212 85.1904 17.0608 85.1904C17.6341 85.1904 18.1757 85.4331 18.5637 85.8522C19.8581 87.2454 21.5376 88.4333 23.4836 89.3438L23.1824 93.6735C23.1303 94.4424 23.7384 95.0927 24.5087 95.0927H25.1457C25.7191 95.0927 26.2287 94.7256 26.4083 94.1822L27.1959 91.8093C27.3957 91.2023 28.0125 90.841 28.6409 90.9537C29.9353 91.1849 31.2847 91.3092 32.6776 91.3092C34.8002 91.3092 36.833 91.237 38.7065 91.0028C39.3175 90.9248 39.8967 91.2948 40.0849 91.8786L40.8262 94.1736C41.0029 94.7227 41.5154 95.0927 42.0917 95.0927H42.7229C43.4932 95.0927 44.1013 94.4424 44.0492 93.6764L43.7828 89.708C47.3967 88.1096 49.6872 84.988 49.6872 78.9732L49.6901 78.9674Z" fill="white"/>
<path d="M42.7229 95.451H42.0917C41.3533 95.451 40.7075 94.9799 40.4816 94.2804L39.7403 91.9855C39.6042 91.5664 39.1901 91.3004 38.75 91.3554C37.0675 91.5664 35.139 91.6646 32.6776 91.6646C31.3021 91.6646 29.9237 91.5432 28.5772 91.3033C28.1197 91.2224 27.6824 91.4796 27.5376 91.919L26.7529 94.292C26.5241 94.9856 25.8784 95.451 25.1457 95.451H24.5087C24.0424 95.451 23.5907 95.2544 23.2722 94.9134C22.9536 94.5723 22.7886 94.1099 22.8204 93.6445L23.1042 89.5604C21.193 88.6384 19.5772 87.4736 18.2973 86.0949C17.9758 85.7481 17.5241 85.5486 17.0579 85.5486C15.8417 85.5486 14.805 84.6815 14.5936 83.4849L13.9942 80.1061C13.7915 78.9615 14.3909 77.8545 15.4363 77.3892C15.9314 74.4699 17.8108 71.7588 20.7529 69.7298C21.3002 68.2904 22.2587 66.4608 23.7587 65.6717C24.2944 65.3914 24.804 65.3451 25.2789 65.5388C27.0743 66.2729 28.6872 66.5504 30.2104 66.3943C31.0212 66.3105 31.8494 66.2671 32.6747 66.2671C37.8986 66.2671 42.0106 67.1718 44.8948 68.9609C48.3146 71.0796 50.0492 74.4468 50.0492 78.9644C50.0492 84.4821 48.1235 88.0719 44.1621 89.9246L44.4112 93.6445C44.443 94.1099 44.278 94.5694 43.9594 94.9105C43.6409 95.2515 43.1892 95.4452 42.7229 95.4452V95.451ZM38.8658 90.627C39.5695 90.627 40.2094 91.0808 40.4295 91.7658L41.1708 94.0607C41.3011 94.4625 41.6718 94.7313 42.0917 94.7313H42.7229C42.9951 94.7313 43.2442 94.6215 43.4295 94.4249C43.6148 94.2284 43.7075 93.9711 43.6872 93.6994L43.4208 89.731C43.4092 89.5807 43.4961 89.4391 43.6351 89.3755C47.5154 87.6586 49.3224 84.352 49.3224 78.9702C49.3224 71.0246 43.722 66.9955 32.6718 66.9955C31.8726 66.9955 31.0675 67.036 30.2828 67.1169C28.638 67.2874 26.9121 66.9926 25.0038 66.2122C24.7345 66.1024 24.4363 66.1371 24.0946 66.3163C22.6872 67.0562 21.7953 68.9985 21.3899 70.094C21.3639 70.1633 21.3175 70.224 21.2538 70.2674C18.3552 72.2357 16.5309 74.8804 16.1197 77.7071C16.0994 77.8401 16.0067 77.9528 15.8793 77.9962C15.0453 78.2823 14.5531 79.1176 14.7065 79.9847L15.306 83.3635C15.4565 84.2133 16.1921 84.8289 17.0579 84.8289C17.7239 84.8289 18.3668 85.1122 18.8272 85.6065C20.0955 86.9678 21.7114 88.1153 23.637 89.0142C23.7731 89.0778 23.8542 89.2165 23.8455 89.3668L23.5444 93.6965C23.5241 93.9653 23.6168 94.2255 23.8021 94.422C23.9874 94.6186 24.2394 94.7284 24.5116 94.7284H25.1486C25.5685 94.7284 25.9363 94.4625 26.0695 94.0665L26.8542 91.6935C27.1148 90.9131 27.8909 90.4507 28.7075 90.5952C30.0106 90.8264 31.3484 90.9449 32.6805 90.9449C35.1129 90.9449 37.0125 90.8495 38.6631 90.6414C38.7326 90.6328 38.7992 90.6299 38.8687 90.6299L38.8658 90.627Z" fill="black"/>
<path d="M37.9797 69.6979C37.9536 69.6979 37.9247 69.695 37.8957 69.6893C35.1477 69.0476 31.7625 69.3915 31.7278 69.3944C31.5222 69.4147 31.3513 69.2702 31.3311 69.0736C31.3108 68.8742 31.4556 68.6979 31.6525 68.6776C31.7944 68.6632 35.1911 68.3163 38.0608 68.9869C38.2548 69.0331 38.3764 69.2268 38.3301 69.4204C38.2924 69.5881 38.1419 69.6979 37.9768 69.6979H37.9797Z" fill="black"/>
<path d="M50.8629 81.4704C50.7992 81.4704 50.7355 81.4646 50.6718 81.4531C49.9391 81.3143 49.4034 80.4241 49.3455 80.3229C49.2442 80.1495 49.305 79.9298 49.4787 79.8287C49.6525 79.7275 49.8725 79.7882 49.9739 79.9588C50.1332 80.2304 50.498 80.6813 50.8079 80.7391C50.8716 80.7507 50.9613 80.7536 51.0772 80.6582C51.2335 80.5339 51.4623 80.5599 51.5868 80.7131C51.7113 80.8692 51.6853 81.0975 51.5318 81.2218C51.3291 81.3837 51.1032 81.4675 50.8658 81.4675L50.8629 81.4704Z" fill="black"/>
<path d="M20.443 77.0625C20.8774 77.0625 21.2278 77.4122 21.2278 77.8458V78.8748C21.2278 79.3083 20.8745 79.658 20.443 79.658C20.0087 79.658 19.6583 79.3083 19.6583 78.8748V77.8458C19.6583 77.4122 20.0087 77.0625 20.443 77.0625Z" fill="black"/>
<path d="M35.9498 57.4893C35.8717 57.4893 35.7906 57.4633 35.724 57.4112C35.5676 57.2869 35.5415 57.0586 35.6661 56.9025C35.7066 56.8534 36.6564 55.6655 38.9238 53.2549C39.0599 53.1104 39.2887 53.1017 39.4363 53.2376C39.584 53.3734 39.5898 53.6017 39.4537 53.7492C37.2095 56.1337 36.2452 57.339 36.2336 57.3505C36.1612 57.4401 36.057 57.4864 35.9498 57.4864V57.4893Z" fill="black"/>
<path d="M37.9305 47.185C37.9305 47.185 40.1631 49.2401 40.3774 51.6506C40.5917 54.0612 38.5879 58.3215 36.6998 57.0353C34.8118 55.7491 34.111 50.4598 34.9855 49.0059C35.8601 47.5521 37.3282 46.0058 37.9305 47.185Z" fill="white"/>
<path d="M37.4151 57.6365C37.0994 57.6365 36.7896 57.5353 36.4942 57.3359C34.4324 55.9312 33.723 50.399 34.6728 48.8209C34.916 48.4134 36.1844 46.4075 37.3427 46.4075C37.3542 46.4075 37.3658 46.4075 37.3774 46.4075C37.6264 46.4161 37.971 46.5202 38.2201 46.9624C38.556 47.2861 40.528 49.266 40.7365 51.6188C40.9015 53.4744 39.8098 56.4948 38.3012 57.3763C38.0058 57.5498 37.7075 57.6365 37.4151 57.6365ZM37.3398 47.1301C36.888 47.1301 35.9932 48.0318 35.2925 49.1938C34.4961 50.5204 35.1679 55.5583 36.8996 56.7405C37.2355 56.9688 37.5627 56.9717 37.9334 56.7549C39.0801 56.0844 40.166 53.431 40.0125 51.6852C39.8156 49.4452 37.7017 47.4711 37.6815 47.4538C37.6496 47.4249 37.6235 47.3902 37.6033 47.3526C37.4932 47.1358 37.3919 47.133 37.3485 47.133C37.3456 47.133 37.3398 47.133 37.3369 47.133L37.3398 47.1301Z" fill="black"/>
<path d="M34.612 62.1918C36.6639 62.1918 38.3273 60.5315 38.3273 58.4835C38.3273 56.4354 36.6639 54.7751 34.612 54.7751C32.5602 54.7751 30.8968 56.4354 30.8968 58.4835C30.8968 60.5315 32.5602 62.1918 34.612 62.1918Z" fill="#F7F552"/>
<path d="M34.612 62.553C32.3649 62.553 30.5348 60.7263 30.5348 58.4834C30.5348 56.2405 32.3649 54.4138 34.612 54.4138C36.8591 54.4138 38.6892 56.2405 38.6892 58.4834C38.6892 60.7263 36.8591 62.553 34.612 62.553ZM34.612 55.1364C32.7616 55.1364 31.2587 56.6365 31.2587 58.4834C31.2587 60.3304 32.7616 61.8305 34.612 61.8305C36.4624 61.8305 37.9653 60.3304 37.9653 58.4834C37.9653 56.6365 36.4624 55.1364 34.612 55.1364Z" fill="black"/>
<path d="M24.474 59.9951C24.0483 59.602 22.0821 57.6105 21.1786 53.1912C20.4836 49.7979 21.8823 48.0782 22.8437 47.3527C23.336 46.9798 23.7819 46.555 24.1641 46.0723C24.6854 45.4162 25.612 44.5837 27.028 44.3901C27.6593 44.3034 28.2732 44.1271 28.8582 43.8785C29.5329 43.5895 30.5116 43.2946 31.5599 43.3727C32.2056 43.4218 32.8543 43.3524 33.4914 43.2368C34.4991 43.0519 36.0454 43.1068 37.1371 44.7051C38.8832 47.2631 39.3495 56.1567 37.1371 56.914C34.9248 57.6683 34.2819 56.0411 34.2819 56.0411C34.2819 56.0411 34.1371 57.2608 32.9122 57.6683C31.6902 58.0759 30.8446 57.2608 30.8446 57.2608C30.8446 57.2608 30.4363 58.4805 29.5039 58.8303C28.5715 59.18 27.8157 58.4805 27.8157 58.4805C27.8157 58.4805 27.9315 59.7581 27.0599 60.4575C26.1854 61.1541 24.9315 60.4171 24.4711 59.9951H24.474Z" fill="white"/>
<path d="M26.2114 61.1108C25.4556 61.1108 24.6853 60.683 24.2278 60.261C23.6574 59.7379 21.7288 57.6886 20.8253 53.2635C20.0811 49.6158 21.6332 47.8123 22.6265 47.0637C23.1043 46.7024 23.527 46.2919 23.8832 45.8468C24.4508 45.1358 25.4469 44.2427 26.9817 44.0317C27.5637 43.9508 28.1487 43.7889 28.7191 43.5461C29.4025 43.2542 30.4537 42.9276 31.5888 43.0114C32.1332 43.0519 32.7182 43.0114 33.4276 42.8813C34.3919 42.705 36.1931 42.6819 37.4382 44.5028C38.8861 46.6214 39.4826 52.7663 38.5241 55.648C38.2317 56.5296 37.8031 57.0701 37.2587 57.255C35.7674 57.7637 34.8813 57.2926 34.4093 56.8215C34.1921 57.2521 33.7867 57.7608 33.0338 58.0094C32.1419 58.3071 31.4238 58.0499 31.0039 57.81C30.778 58.2522 30.3408 58.9054 29.6371 59.1685C29.0492 59.3881 28.528 59.2754 28.1545 59.1106C28.0821 59.6049 27.8736 60.2755 27.2915 60.7408C26.9614 61.0038 26.5908 61.1079 26.2143 61.1079L26.2114 61.1108ZM31.2182 43.7195C30.3465 43.7195 29.5473 43.9768 29.0029 44.2109C28.3745 44.4797 27.7259 44.6618 27.0801 44.7485C25.7828 44.9277 24.9344 45.6879 24.4508 46.2977C24.057 46.792 23.5907 47.2429 23.0637 47.6417C22.2066 48.2892 20.8687 49.8615 21.5348 53.1218C22.418 57.44 24.3436 59.3852 24.7201 59.7321C25.1255 60.1049 26.1796 60.7061 26.8369 60.1801C27.5435 59.6165 27.4595 58.5297 27.4595 58.5181C27.4479 58.3707 27.5261 58.2291 27.6622 58.1626C27.7983 58.0961 27.9575 58.1193 28.0676 58.2204C28.0907 58.2406 28.6786 58.758 29.3823 58.4979C30.138 58.2146 30.5029 57.1625 30.5058 57.151C30.5463 57.0325 30.6419 56.9458 30.7635 56.914C30.8852 56.8851 31.0126 56.9169 31.0994 57.0036C31.1255 57.0296 31.8118 57.6568 32.8021 57.3273C33.7838 57.0007 33.9199 56.0382 33.9257 55.9977C33.946 55.833 34.0763 55.7058 34.2413 55.6856C34.4035 55.6653 34.5628 55.7578 34.6236 55.911C34.6786 56.0411 35.2114 57.1915 37.0241 56.5729C37.3398 56.4631 37.6236 56.0671 37.8379 55.4197C38.7297 52.749 38.1709 46.8556 36.8417 44.9104C35.8803 43.5028 34.5251 43.4161 33.5608 43.5924C32.7877 43.734 32.1448 43.7802 31.5367 43.734C31.4296 43.7253 31.3253 43.7224 31.2211 43.7224L31.2182 43.7195Z" fill="black"/>
<path d="M34.2848 56.4023C34.0937 56.4023 33.9344 56.252 33.9228 56.0612C33.9228 56.0063 33.6246 50.6447 32.8832 47.341C32.8398 47.1474 32.9614 46.9537 33.1583 46.9104C33.3524 46.867 33.5464 46.9884 33.5898 47.185C34.3456 50.5464 34.6439 55.9687 34.6468 56.0237C34.6583 56.2231 34.5049 56.3936 34.3051 56.4052C34.2993 56.4052 34.2906 56.4052 34.2848 56.4052V56.4023Z" fill="black"/>
<path d="M30.8475 57.6221C30.668 57.6221 30.5116 57.4862 30.4884 57.3041C30.4797 57.2406 29.724 50.9916 28.6525 48.5088C28.5743 48.3267 28.6583 48.1128 28.8408 48.0348C29.0232 47.9539 29.2375 48.0406 29.3157 48.2227C30.4305 50.798 31.1747 56.9573 31.2066 57.2174C31.2297 57.4169 31.0879 57.5961 30.8909 57.6192C30.8765 57.6192 30.862 57.6192 30.8475 57.6192V57.6221Z" fill="black"/>
<path d="M27.8185 58.8447C27.7085 58.8447 27.5985 58.7956 27.529 58.6973C27.4855 58.6366 26.4402 57.2117 25.5222 54.1681C24.6998 51.4454 24.5927 49.4829 24.5898 49.4019C24.5811 49.2025 24.7346 49.032 24.9344 49.0233C25.1255 49.0146 25.305 49.1678 25.3137 49.3673C25.3137 49.3875 25.4208 51.3298 26.2172 53.96C27.0975 56.8677 28.1023 58.2551 28.1139 58.2695C28.2326 58.4285 28.1979 58.6568 28.0386 58.7753C27.9749 58.8245 27.8996 58.8476 27.8243 58.8476L27.8185 58.8447Z" fill="black"/>
<path d="M75.8794 33.9386L76.7249 38.0226C76.9942 39.3175 77.6429 40.5141 78.639 41.387C79.0357 41.7338 76.6409 50.9454 70.499 52.6304C64.3572 54.3155 64.3774 48.0521 64.3282 46.6648C64.279 45.2774 63.5116 37.9244 63.5116 37.9244C63.5116 37.9244 70.9739 31.5656 75.8765 33.9415L75.8794 33.9386Z" fill="white"/>
<path d="M65.0029 50.5263C64.36 49.0493 64.3542 47.3151 64.3311 46.6648C64.2818 45.2774 63.5145 37.9244 63.5145 37.9244C63.5145 37.9244 70.9768 31.5656 75.8793 33.9415L76.7249 38.0255C76.9942 39.3204 77.6428 40.517 78.639 41.3899C78.7867 41.5199 78.5434 42.8958 77.8571 44.656" fill="white"/>
<path d="M65.0029 50.8876C64.8639 50.8876 64.7307 50.8066 64.6699 50.6708C64.0444 49.2314 63.9952 47.607 63.972 46.8266L63.9662 46.6792C63.9199 45.3207 63.1583 38.0371 63.1525 37.9619C63.1409 37.8434 63.1873 37.7278 63.277 37.6498C63.3552 37.5833 65.2027 36.0196 67.6873 34.7218C71.084 32.9501 73.8929 32.5772 76.0357 33.6148C76.1371 33.664 76.2095 33.7565 76.2326 33.8663L77.0782 37.9504C77.3388 39.2019 77.9759 40.3262 78.8764 41.1153C79.418 41.5893 78.3205 44.4565 78.193 44.7831C78.1207 44.9681 77.9093 45.0606 77.7239 44.9883C77.5386 44.9161 77.4459 44.7051 77.5183 44.5201C78.1207 42.9738 78.3205 41.8899 78.3205 41.5864C77.3446 40.6991 76.6554 39.4649 76.3716 38.0949L75.5637 34.19C71.2925 32.32 64.9334 37.2364 63.8967 38.0775C64.0212 39.2712 64.6496 45.3757 64.693 46.6503L64.6988 46.8035C64.722 47.5405 64.7683 49.0724 65.3359 50.3817C65.417 50.5638 65.3301 50.7777 65.1477 50.8558C65.1014 50.876 65.0521 50.8847 65.0029 50.8847V50.8876Z" fill="black"/>
<path d="M57.3176 22.7819C57.3176 22.7819 54.5087 28.21 56.7124 39.2251C58.4296 47.8066 68.4807 52.0207 75.1236 41.6617C81.7664 31.3027 79.8292 21.6316 69.8649 20.1113C59.9006 18.5909 57.3176 22.7819 57.3176 22.7819Z" fill="white"/>
<path d="M65.8919 48.1187C65.1796 48.1187 64.4701 48.0291 63.7635 47.8441C60.112 46.8874 57.2047 43.5317 56.3562 39.2973C54.1525 28.2851 56.8774 22.8454 56.9962 22.6171C57.1207 22.4148 59.8369 18.218 69.9199 19.7557C70.1168 19.7846 70.2529 19.9695 70.224 20.1661C70.195 20.3626 70.0068 20.4985 69.8128 20.4696C64.8002 19.7065 61.7481 20.432 60.0714 21.1777C58.3745 21.9321 57.7085 22.8512 57.6332 22.964C57.5608 23.1142 56.9267 24.4612 56.5386 26.9758C56.1593 29.4354 55.945 33.5426 57.0657 39.1557C57.8591 43.1212 60.5608 46.2573 63.946 47.1446C67.2182 48.003 70.5367 46.7197 73.2906 43.5288C73.4209 43.3785 73.6496 43.3611 73.8002 43.4912C73.9508 43.6213 73.9682 43.8496 73.8379 43.9999C71.5213 46.685 68.7095 48.1187 65.889 48.1187H65.8919Z" fill="black"/>
<path d="M56.0174 33.5483C56.0174 33.5483 53.7529 29.2995 53.2577 26.545C52.4759 22.195 55.8958 22.5447 55.8958 20.8076C55.8958 17.6022 56.7384 12.9054 67.4411 15.3507C68.4517 15.5819 70.8407 14.1454 73.5657 15.2986C75.3639 16.0588 77.7355 19.9261 78.3465 20.1891C84.1902 22.7066 80.805 37.2219 78.0975 40.8435C78.0975 40.8435 77.585 40.7366 77.1072 39.2481C75.2278 33.4096 73.2819 35.1091 73.5657 31.1378C74.0492 24.4177 70.945 25.2761 68.9064 26.2704C66.3002 27.5422 62.0927 29.6319 56.611 26.3571C56.611 26.3571 55.8697 28.0971 56.0174 33.5512V33.5483Z" fill="black"/>
<path d="M74.3475 34.6583C74.3475 34.6583 75.28 31.0309 78.2568 31.4934C81.2336 31.9558 80.4344 38.2857 76.1139 39.0141" fill="white"/>
<path d="M76.1139 36.0427C76.0589 36.0427 76.0039 36.0311 75.9517 36.0051C75.7722 35.9155 75.7027 35.6987 75.7925 35.5195C76.9392 33.2622 78.39 33.6408 78.4479 33.6582C78.6419 33.7131 78.7519 33.9125 78.6969 34.1033C78.6419 34.294 78.4479 34.4068 78.2568 34.3547C78.2075 34.3432 77.2925 34.164 76.4382 35.8461C76.3745 35.9704 76.2471 36.0427 76.1139 36.0427Z" fill="black"/>
<path d="M65.6428 41.647C66.859 41.647 67.8581 40.9475 68.4459 40.2307L65.6428 41.647Z" fill="white"/>
<path d="M65.6429 42.0082C65.443 42.0082 65.2809 41.8463 65.2809 41.6469C65.2809 41.4475 65.443 41.2856 65.6429 41.2856C67.0039 41.2856 67.9189 40.3029 68.1651 40.0023C68.2925 39.8491 68.5212 39.826 68.6747 39.9532C68.8282 40.0803 68.8513 40.3087 68.7239 40.4619C67.9247 41.4301 66.7722 42.0082 65.6429 42.0082Z" fill="black"/>
<path d="M68.2915 36.2322C68.8288 36.2298 69.2617 35.6352 69.2584 34.9041C69.2551 34.173 68.8168 33.5823 68.2794 33.5847C67.7421 33.5871 67.3092 34.1818 67.3125 34.9129C67.3158 35.644 67.7541 36.2347 68.2915 36.2322Z" fill="black"/>
<path d="M57.9865 35.1667C57.9894 35.898 58.4267 36.4905 58.9653 36.4876C59.501 36.4876 59.9354 35.8893 59.9325 35.1581C59.9296 34.4268 59.4923 33.8343 58.9537 33.8372C58.418 33.8372 57.9836 34.4355 57.9865 35.1667Z" fill="black"/>
<path d="M66.7809 30.0798C67.2645 29.3139 68.3359 29.2532 69.0917 29.6C69.2858 29.707 69.9894 30.0249 69.7665 30.2937C69.723 30.3428 69.6593 30.3602 69.5985 30.3486C68.9556 30.1839 68.3041 30.0249 67.6497 30.1723C67.4325 30.207 67.2037 30.2822 66.9836 30.3428C66.8331 30.392 66.6941 30.2099 66.7809 30.0798Z" fill="black"/>
<path d="M62.5154 39.6093C61.7973 39.6093 60.9315 39.4156 60.584 38.5688C60.0483 37.2566 60.9228 32.7765 61.0241 32.2678C61.0618 32.0713 61.2529 31.9441 61.4498 31.9846C61.6467 32.0221 61.7741 32.2129 61.7336 32.4094C61.3513 34.3142 60.9112 37.4531 61.2558 38.2942C61.6351 39.222 63.4073 38.7827 63.4247 38.7769C63.6187 38.7277 63.8156 38.8405 63.8678 39.0341C63.9199 39.2278 63.804 39.4243 63.61 39.4763C63.5666 39.4879 63.0888 39.6093 62.5183 39.6093H62.5154Z" fill="black"/>
<path d="M57.2394 30.4615C57.6101 29.7042 58.638 29.6146 59.3128 29.9788C59.501 30.0973 60.1062 30.4181 59.8716 30.6753C59.8253 30.7158 59.7645 30.7303 59.7095 30.7187C59.1593 30.5626 58.6033 30.3979 58.0386 30.5424C57.8533 30.5742 57.6506 30.6522 57.4537 30.7071C57.3089 30.7563 57.1699 30.5915 57.2394 30.4586V30.4615Z" fill="black"/>
<path d="M101.843 95.0895C81.5666 98.7429 55.4816 95.3351 55.4816 95.3351C55.6641 95.0316 41.8137 96.7514 38.6023 94.3148C36.3957 92.6413 39.1901 91.5141 39.1901 91.5141C37.4237 91.7453 35.2895 91.0256 36.1004 89.3608C36.5608 88.4214 38.6197 87.9734 40.3253 87.7653C36.7027 87.7827 36.2596 86.2739 36.9488 85.2449C37.9073 83.8142 44.0521 83.8489 46.6264 82.8199C49.2036 81.791 49.6293 80.629 49.6293 80.629C49.6293 80.629 48.6563 78.9844 48.4189 76.8138C48.0743 73.6373 49.9594 71.5244 51.3031 73.9812C51.3726 74.1055 51.4421 74.2298 51.5144 74.3512C52.5917 76.1981 54.138 77.6953 55.9565 78.7474C56.0984 78.8312 56.2461 78.9122 56.3938 78.9902C56.3938 78.9902 56.3938 78.9902 56.3996 78.9902C56.5502 79.0683 56.7007 79.1463 56.8542 79.2157C56.9932 79.2821 57.1322 79.3457 57.2712 79.4064C57.4015 79.4642 57.5318 79.5163 57.6621 79.5654C57.7258 79.5943 57.7895 79.6203 57.8561 79.6405C58.0183 79.7041 58.1805 79.759 58.3426 79.8111C58.4816 79.8602 58.6235 79.9036 58.7654 79.944C58.9305 79.9961 59.0955 80.0365 59.2635 80.0799C59.4314 80.1232 59.5994 80.1608 59.7673 80.1955C62.2635 80.7157 64.6699 81.106 66.4797 81.0308C68.8339 80.9325 93.0801 78.0913 93.0801 78.0913L91.4903 74.6258C91.4903 74.6258 105.161 72.2557 110.602 64.8362C111.364 66.4028 112.001 67.8884 112.511 69.2266C115.896 78.0422 119.747 91.8609 101.846 95.0866L101.843 95.0895Z" fill="white"/>
<path d="M55.9536 79.103C55.7538 79.103 55.5945 78.944 55.5917 78.7446C55.4961 67.6167 55.7191 62.6367 56.0694 56.3068C56.081 56.1074 56.2606 55.96 56.4517 55.9657C56.6515 55.9773 56.805 56.1478 56.7934 56.3473C56.443 62.6627 56.22 67.6312 56.3156 78.7388C56.3156 78.9382 56.1563 79.1001 55.9565 79.103H55.9536Z" fill="black"/>
<path d="M80.5328 97.156C67.2615 97.156 55.6148 95.7166 55.4353 95.6935C55.3948 95.6877 55.3571 95.6762 55.3224 95.6588C55.0704 95.6444 54.2538 95.6964 53.3909 95.7513C49.3339 95.997 40.8957 96.5115 38.3793 94.6039C37.6496 94.0489 37.3195 93.4651 37.3976 92.8668C37.4498 92.4708 37.6756 92.1442 37.9449 91.884C37.0878 91.7915 36.2567 91.4852 35.8339 90.8955C35.5936 90.5603 35.3851 89.9937 35.7731 89.2018C36.083 88.5688 36.9488 88.1353 37.9739 87.8433C37.192 87.6005 36.7693 87.2335 36.5434 86.8751C36.2017 86.3317 36.2393 85.6467 36.6419 85.0426C37.2905 84.0714 39.5347 83.7477 42.1322 83.3748C43.7654 83.1407 45.4565 82.8951 46.4874 82.4846C48.3436 81.7418 49.0096 80.9383 49.2094 80.629C48.9459 80.1319 48.2509 78.678 48.0511 76.8484C47.8281 74.779 48.5029 72.9523 49.6264 72.6025C49.9681 72.4956 50.8455 72.4002 51.6158 73.8049C51.6824 73.9263 51.749 74.0448 51.8185 74.1633C53.5154 77.0652 56.4372 79.1347 59.8339 79.8428C61.7307 80.2388 64.4787 80.7562 66.4594 80.6724C68.5878 80.5828 89.0723 78.1982 92.5357 77.7936L88.4237 68.8393C88.3397 68.6572 88.4208 68.4433 88.6032 68.3595C88.7857 68.2757 89 68.3566 89.0839 68.5387L93.4015 77.9439C93.4507 78.0479 93.4449 78.1693 93.387 78.2705C93.3291 78.3717 93.2278 78.4381 93.1148 78.4526C92.1245 78.5682 68.831 81.2967 66.4884 81.395C64.9015 81.4585 62.8021 81.2013 59.6863 80.551C56.0897 79.8024 52.9942 77.6086 51.1959 74.5304C51.1235 74.409 51.054 74.2818 50.9816 74.1546C50.7702 73.7673 50.3388 73.1401 49.8436 73.2933C49.1689 73.5043 48.5752 74.9524 48.7722 76.7733C48.9951 78.837 49.9247 80.4296 49.9334 80.4469C49.9884 80.5394 50 80.6521 49.9623 80.7533C49.9131 80.8892 49.4063 82.1002 46.7567 83.1581C45.6447 83.6032 43.9102 83.8518 42.2364 84.0945C40.1168 84.4009 37.7133 84.7449 37.2442 85.4501C37.0994 85.664 36.8996 86.086 37.1544 86.4964C37.3108 86.745 37.942 87.4011 40.2471 87.404C41.443 87.2537 42.4681 87.2248 42.7171 87.219C42.8967 87.2103 43.0704 87.3606 43.0849 87.5514C43.0994 87.7422 42.9633 87.9127 42.7722 87.9387C41.8108 88.0688 40.9884 88.1266 40.2905 88.1295C38.5241 88.3607 36.7722 88.8058 36.4218 89.5226C36.2336 89.907 36.2336 90.2192 36.4218 90.4793C36.8127 91.0198 37.9826 91.3117 39.1409 91.1614C39.3262 91.1383 39.4913 91.2511 39.5376 91.4274C39.5839 91.6037 39.4913 91.7858 39.3233 91.8551C39.0337 91.9736 38.1882 92.4303 38.1158 92.9679C38.0637 93.3668 38.4691 93.7656 38.8166 94.0316C41.1187 95.7773 49.6872 95.2571 53.3446 95.0345C55.0038 94.9333 55.4614 94.9045 55.6496 94.9969C57.694 95.2426 83.8137 98.2717 101.767 94.7397C107.625 93.5865 111.578 91.2279 113.521 87.7219C116.504 82.3401 114.364 75.0795 112.166 69.3595C111.619 67.9317 110.979 66.4634 110.269 65.0009C110.182 64.8217 110.258 64.6049 110.437 64.5182C110.617 64.4315 110.834 64.5067 110.921 64.6859C111.642 66.1686 112.288 67.6542 112.844 69.1023C117.135 80.2735 115.8 85.1091 114.158 88.0746C112.108 91.7742 107.99 94.2541 101.912 95.4507C95.3475 96.7427 87.7027 97.1618 80.5328 97.1618V97.156Z" fill="black"/>
<path d="M42.7258 87.9359C42.5376 87.9359 42.3812 87.7913 42.3638 87.6035C42.3494 87.404 42.497 87.2306 42.6968 87.2162C42.7692 87.2104 49.8638 86.6439 51.8735 86.167C52.0675 86.1207 52.2644 86.2392 52.3078 86.4358C52.3542 86.6294 52.2355 86.8231 52.0385 86.8693C49.9739 87.3607 43.0472 87.9127 42.7519 87.9359C42.7432 87.9359 42.7316 87.9359 42.7229 87.9359H42.7258Z" fill="black"/>
<path d="M40.0212 95.2802C39.8272 95.2802 39.6679 95.127 39.6592 94.9333C39.6505 94.7339 39.8069 94.5663 40.0067 94.5576C40.0878 94.5547 48.1756 94.2223 52.415 93.3581C52.6119 93.3176 52.803 93.4448 52.8436 93.6385C52.8841 93.8321 52.7567 94.0258 52.5627 94.0662C48.2654 94.9449 40.1196 95.2773 40.0357 95.2802C40.0299 95.2802 40.027 95.2802 40.0212 95.2802Z" fill="black"/>
<path d="M39.8011 91.8783C39.4189 91.8783 39.1988 91.8783 39.1872 91.8783C38.9874 91.8783 38.8281 91.7107 38.831 91.5113C38.831 91.3147 38.9961 91.1558 39.193 91.1558H39.1988C39.277 91.1558 47.2229 91.2425 52.2326 90.3291C52.4295 90.2915 52.6177 90.4245 52.6525 90.6182C52.6872 90.8147 52.5569 91.0026 52.3629 91.0373C48.1032 91.8148 41.7847 91.8783 39.804 91.8783H39.8011Z" fill="black"/>
<path d="M105.54 78.4527C105.523 78.4527 105.503 78.4527 105.485 78.4498C100.49 77.681 93.1872 78.444 93.1148 78.4498C92.9179 78.4701 92.7384 78.3284 92.7152 78.129C92.692 77.9296 92.8368 77.7532 93.0366 77.7301C93.1119 77.7215 100.505 76.9497 105.596 77.7301C105.792 77.759 105.929 77.944 105.897 78.1434C105.871 78.3226 105.714 78.4498 105.54 78.4498V78.4527Z" fill="black"/>
<path d="M84.2886 64.6513H73.7944C73.5946 64.6513 73.4324 64.4894 73.4324 64.29C73.4324 64.0906 73.5946 63.9287 73.7944 63.9287H84.2886C84.4884 63.9287 84.6506 64.0906 84.6506 64.29C84.6506 64.4894 84.4884 64.6513 84.2886 64.6513Z" fill="black"/>
<path d="M67.001 59.4257C66.9865 59.4257 66.9691 59.4257 66.9546 59.4228C66.7577 59.3968 66.6158 59.2147 66.6419 59.0181L67.3484 53.6016C67.3745 53.4051 67.5569 53.2634 67.7538 53.2895C67.9508 53.3155 68.0927 53.4976 68.0666 53.6941L67.36 59.1106C67.3369 59.2927 67.1805 59.4257 67.001 59.4257Z" fill="black"/>
<path d="M70.6061 56.9199C71.0491 56.9199 71.4083 56.5614 71.4083 56.1192C71.4083 55.6771 71.0491 55.3186 70.6061 55.3186C70.1631 55.3186 69.804 55.6771 69.804 56.1192C69.804 56.5614 70.1631 56.9199 70.6061 56.9199Z" fill="black"/>
<path d="M37.2674 34.8142C34.0415 34.8142 31.418 32.1956 31.418 28.9757C31.418 25.7559 34.0415 23.1372 37.2674 23.1372C40.4933 23.1372 43.1168 25.7559 43.1168 28.9757C43.1168 32.1956 40.4933 34.8142 37.2674 34.8142ZM37.2674 23.8627C34.4411 23.8627 32.1419 26.1576 32.1419 28.9786C32.1419 31.7996 34.4411 34.0945 37.2674 34.0945C40.0936 34.0945 42.3929 31.7996 42.3929 28.9786C42.3929 26.1576 40.0936 23.8627 37.2674 23.8627Z" fill="black"/>
<path d="M122.387 50.337C122.775 47.9483 121.15 45.6976 118.757 45.3098C116.364 44.9221 114.109 46.5442 113.72 48.9329C113.332 51.3216 114.957 53.5724 117.35 53.9601C119.744 54.3479 121.998 52.7258 122.387 50.337Z" fill="#F7F552"/>
<path d="M105.541 42.0834C110.127 42.0834 113.846 38.3721 113.846 33.7939C113.846 29.2157 110.127 25.5044 105.541 25.5044C100.954 25.5044 97.2355 29.2157 97.2355 33.7939C97.2355 38.3721 100.954 42.0834 105.541 42.0834Z" fill="white"/>
<path d="M105.541 40.1816C109.075 40.1816 111.94 37.3217 111.94 33.7939C111.94 30.2661 109.075 27.4062 105.541 27.4062C102.006 27.4062 99.1409 30.2661 99.1409 33.7939C99.1409 37.3217 102.006 40.1816 105.541 40.1816Z" fill="#F7F552"/>
<path d="M105.541 42.4447C100.763 42.4447 96.8735 38.563 96.8735 33.7939C96.8735 29.0248 100.763 25.1431 105.541 25.1431C110.319 25.1431 114.208 29.0248 114.208 33.7939C114.208 38.563 110.319 42.4447 105.541 42.4447ZM105.541 25.8657C101.162 25.8657 97.5975 29.4208 97.5975 33.7939C97.5975 38.167 101.159 41.7221 105.541 41.7221C109.922 41.7221 113.484 38.167 113.484 33.7939C113.484 29.4208 109.922 25.8657 105.541 25.8657Z" fill="black"/>
<path d="M105.144 37.7998V37.3662C105.144 37.1986 105.016 37.0599 104.848 37.0425C104.458 37.0021 104.078 36.8922 103.78 36.7477C103.629 36.6726 103.56 36.4991 103.618 36.3431L103.65 36.2535C103.716 36.0714 103.922 35.9847 104.098 36.0685C104.44 36.2303 104.86 36.3431 105.303 36.3431C106.053 36.3431 106.563 35.9095 106.563 35.3083C106.563 34.7071 106.152 34.369 105.367 34.051C104.29 33.629 103.621 33.1434 103.621 32.2243C103.621 31.4237 104.142 30.7994 104.973 30.5768C105.118 30.5392 105.219 30.4092 105.219 30.2618V29.7849C105.219 29.6028 105.367 29.4583 105.546 29.4583C105.729 29.4583 105.874 29.6057 105.874 29.7849V30.178C105.874 30.3456 106.004 30.4843 106.169 30.5046C106.49 30.5421 106.754 30.6202 106.968 30.7127C107.127 30.782 107.203 30.9641 107.142 31.1289L107.11 31.2098C107.043 31.3832 106.849 31.4699 106.679 31.3977C106.435 31.2936 106.094 31.1925 105.648 31.1925C104.834 31.1925 104.527 31.678 104.527 32.1C104.527 32.6492 104.918 32.9238 105.839 33.3024C106.928 33.7446 107.478 34.2938 107.478 35.2332C107.478 36.002 106.983 36.7275 106.053 36.976C105.908 37.0136 105.807 37.1437 105.807 37.2911V37.7998C105.807 37.9819 105.659 38.1264 105.48 38.1264H105.468C105.286 38.1264 105.141 37.979 105.141 37.7998H105.144Z" fill="black"/>
<path d="M129.651 95.0896H3.34949V100.012H129.651V95.0896Z" fill="white"/>
<path d="M129.651 100.373H3.34946C3.14965 100.373 2.98749 100.211 2.98749 100.012V95.0896C2.98749 94.8901 3.14965 94.7283 3.34946 94.7283H129.651C129.85 94.7283 130.013 94.8901 130.013 95.0896V100.012C130.013 100.211 129.85 100.373 129.651 100.373ZM3.71143 99.6505H129.289V95.4509H3.71143V99.6505Z" fill="black"/>
<path d="M7.57437 100.012L0.867803 188.783C0.792513 189.786 1.58595 190.639 2.59078 190.639C3.47688 190.639 4.22108 189.971 4.31085 189.09L13.5367 100.012H7.57437Z" fill="white"/>
<path d="M2.59076 191C2.01161 191 1.45273 190.757 1.05601 190.332C0.659292 189.908 0.459485 189.332 0.502921 188.757L7.21528 99.9859C7.22975 99.798 7.38613 99.6506 7.57725 99.6506H13.5396C13.641 99.6506 13.7394 99.694 13.8089 99.7691C13.8784 99.8443 13.9103 99.9455 13.8987 100.05L4.66991 189.127C4.55987 190.194 3.66508 191 2.59076 191ZM7.91026 100.373L1.22686 188.809C1.1979 189.194 1.32531 189.558 1.58883 189.838C1.84945 190.119 2.20562 190.275 2.59076 190.275C3.29443 190.275 3.87937 189.749 3.95176 189.049L13.1371 100.37H7.91026V100.373Z" fill="black"/>
<path d="M125.426 100.012L132.135 188.78C132.21 189.783 131.417 190.636 130.412 190.636C129.526 190.636 128.782 189.968 128.692 189.087L119.466 100.009H125.429L125.426 100.012Z" fill="white"/>
<path d="M130.409 191C129.335 191 128.44 190.194 128.33 189.127L119.104 100.05C119.093 99.9483 119.127 99.8472 119.194 99.7691C119.264 99.694 119.362 99.6506 119.463 99.6506H125.426C125.614 99.6506 125.773 99.7952 125.788 99.9859L132.497 188.754C132.541 189.332 132.341 189.908 131.944 190.33C131.55 190.754 130.991 190.997 130.412 190.997L130.409 191ZM119.863 100.376L129.048 189.055C129.121 189.754 129.706 190.28 130.409 190.28C130.794 190.28 131.151 190.124 131.411 189.844C131.672 189.564 131.802 189.197 131.773 188.812L125.09 100.376H119.863Z" fill="black"/>
<path d="M88.2182 16.9519C87.9286 16.9519 87.6535 16.8247 87.4682 16.6022L86.3475 15.2697C86.1448 15.0269 85.8466 14.8882 85.528 14.8882C83.9064 14.8882 82.5859 13.5702 82.5859 11.9516V2.93659C82.5859 1.318 83.9064 0 85.528 0H100.624C102.245 0 103.566 1.318 103.566 2.93659V11.9516C103.566 13.5702 102.245 14.8882 100.624 14.8882H90.8446C90.5145 14.8882 90.2105 15.0356 90.0049 15.2957L88.9913 16.579C88.8089 16.8103 88.5338 16.9461 88.2356 16.9519C88.2298 16.9519 88.224 16.9519 88.2211 16.9519H88.2182ZM85.528 0.722587C84.3031 0.722587 83.3099 1.71687 83.3099 2.93659V11.9516C83.3099 13.1742 84.306 14.1656 85.528 14.1656C86.0579 14.1656 86.5589 14.3968 86.9006 14.8044L88.0213 16.1368C88.0908 16.2177 88.1747 16.2351 88.224 16.2293C88.2703 16.2293 88.3572 16.2149 88.4209 16.131L89.4344 14.8477C89.7761 14.4142 90.2886 14.1656 90.8417 14.1656H100.621C101.846 14.1656 102.839 13.1713 102.839 11.9516V2.93659C102.839 1.71398 101.843 0.722587 100.621 0.722587H85.5251H85.528Z" fill="black"/>
<path d="M92.3157 9.76082C92.223 9.76082 92.1304 9.72613 92.0609 9.65387L89.6111 7.20864C89.4692 7.06701 89.4692 6.83867 89.6111 6.69705C89.7529 6.55542 89.9817 6.55542 90.1236 6.69705L92.3157 8.88504L96.1786 5.02932C96.3205 4.88769 96.5493 4.88769 96.6912 5.02932C96.8331 5.17094 96.8331 5.39928 96.6912 5.54091L92.5705 9.65387C92.501 9.72324 92.4084 9.76082 92.3157 9.76082Z" fill="black"/>
<path d="M111.213 88.5025C111.213 88.5025 105.827 84.8578 106.511 82.031C107.194 79.2043 110.026 84.4907 110.437 83.8982C110.848 83.3057 109.16 78.7042 110.802 77.4267C112.447 76.1521 113.634 82.4848 114.042 82.3027C114.454 82.1206 115.32 78.8834 116.918 78.9759C118.516 79.0684 116.825 83.6236 117.193 83.7624C117.558 83.8982 119.249 81.5744 120.251 82.1669C121.256 82.7594 119.657 86.6787 116.324 88.5025" fill="black"/>
<path d="M118.125 95.0898H109.198C107.715 95.0898 106.441 94.0348 106.172 92.5781L105.08 86.6904H122.246L121.154 92.5781C120.885 94.0348 119.611 95.0898 118.128 95.0898H118.125Z" fill="white"/>
<path d="M118.125 95.451H109.198C107.541 95.451 106.117 94.2718 105.816 92.6445L104.724 86.7569C104.704 86.6499 104.733 86.543 104.802 86.4592C104.872 86.3754 104.973 86.3291 105.08 86.3291H122.246C122.353 86.3291 122.455 86.3782 122.524 86.4592C122.594 86.543 122.623 86.6499 122.602 86.7569L121.511 92.6445C121.209 94.2718 119.788 95.451 118.128 95.451H118.125ZM105.512 87.0517L106.525 92.5144C106.763 93.7978 107.886 94.7313 109.195 94.7313H118.123C119.431 94.7313 120.555 93.7978 120.792 92.5144L121.806 87.0517H105.509H105.512Z" fill="black"/>
</g>
<defs>
<clipPath id="clip0_45_346">
<rect width="132" height="191" fill="white" transform="translate(0.5)"/>
</clipPath>
</defs>
</svg>
